<svg width="105" height="93" viewBox="0 0 105 93" fill="none" xmlns="http://www.w3.org/2000/svg">
<rect y="84.4238" width="105" height="8" rx="4" fill="#2F4550"/>
<path fill-rule="evenodd" clip-rule="evenodd" d="M67.1466 64.251C73.5076 59.6624 80.5987 54.8411 82.3193 46.9938C84.0431 39.1321 79.8919 30.9756 76.0788 23.513C72.5112 16.531 67.9802 9.89348 61.297 5.85084C54.7561 1.89431 47.1196 0.930931 39.7974 1.56668C32.7445 2.17904 26.2134 4.85226 20.9477 9.35416C15.7113 13.8309 12.2088 19.891 10.4049 26.6955C8.527 33.7791 8.16076 41.3128 10.5626 48.5279C13.1243 56.2233 17.4029 63.764 24.2242 68.2085C31.0483 72.6549 39.3633 73.083 47.1476 72.3653C54.6032 71.6779 61.2002 68.5405 67.1466 64.251Z" stroke="#2F4550" stroke-width="1.5"/>
<path d="M51.0455 53.3636H71.9545V25.1364H73V22H50V25.1364H51.0455V53.3636ZM53.1364 52.3182H52.0909V25.1364H53.1364V52.3182ZM68.8182 52.3182H54.1818V25.1364H68.8182V52.3182ZM70.9091 52.3182H69.8636V25.1364H70.9091V52.3182ZM51.0455 23.0455H71.9545V24.0909H51.0455V23.0455Z" fill="#2F4550"/>
<path d="M57.3182 47.0908C56.9023 47.0908 56.5034 47.256 56.2093 47.5501C55.9152 47.8442 55.75 48.2431 55.75 48.659V49.7045C55.75 50.1204 55.9152 50.5192 56.2093 50.8133C56.5034 51.1074 56.9023 51.2726 57.3182 51.2726H65.6818C66.0977 51.2726 66.4966 51.1074 66.7907 50.8133C67.0848 50.5192 67.25 50.1204 67.25 49.7045V48.659C67.25 48.2431 67.0848 47.8442 66.7907 47.5501C66.4966 47.256 66.0977 47.0908 65.6818 47.0908H57.3182ZM66.2045 48.659V49.7045C66.2045 49.8431 66.1495 49.9761 66.0514 50.0741C65.9534 50.1721 65.8205 50.2272 65.6818 50.2272H57.3182C57.1795 50.2272 57.0466 50.1721 56.9486 50.0741C56.8505 49.9761 56.7955 49.8431 56.7955 49.7045V48.659C56.7955 48.5204 56.8505 48.3874 56.9486 48.2894C57.0466 48.1913 57.1795 48.1363 57.3182 48.1363H65.6818C65.8205 48.1363 65.9534 48.1913 66.0514 48.2894C66.1495 48.3874 66.2045 48.5204 66.2045 48.659Z" fill="#2F4550"/>
<path d="M58.8407 32.0886L58.4011 34.4477C58.383 34.5428 58.3917 34.6412 58.4262 34.7317C58.4607 34.8222 58.5197 34.9013 58.5966 34.9602C58.6735 35.0192 58.7652 35.0556 58.8616 35.0654C58.9579 35.0752 59.0551 35.0581 59.1423 35.0159L61.4993 33.8758L63.8563 35.0159C63.9433 35.0579 64.0403 35.075 64.1364 35.0652C64.2325 35.0554 64.3241 35.0192 64.4008 34.9606C64.4776 34.9019 64.5367 34.8232 64.5714 34.733C64.6061 34.6428 64.6151 34.5448 64.5975 34.4498L64.1579 32.0886L66.0298 30.4096C66.1042 30.3429 66.158 30.2563 66.1847 30.16C66.2114 30.0638 66.2099 29.9618 66.1805 29.8663C66.1511 29.7709 66.0949 29.6858 66.0186 29.6213C65.9424 29.5567 65.8492 29.5154 65.7501 29.5022L63.126 29.1514L61.9598 26.9779C61.9108 26.9001 61.8429 26.8359 61.7623 26.7914C61.6818 26.747 61.5913 26.7236 61.4993 26.7236C61.4073 26.7236 61.3168 26.747 61.2363 26.7914C61.1557 26.8359 61.0878 26.9001 61.0388 26.9779L59.8726 29.1514L57.2485 29.5022C57.1494 29.5154 57.0563 29.5567 56.98 29.6213C56.9037 29.6858 56.8475 29.7709 56.8181 29.8663C56.7887 29.9618 56.7872 30.0638 56.8139 30.16C56.8407 30.2563 56.8944 30.3429 56.9688 30.4096L58.8407 32.0886ZM60.2761 30.1545C60.3582 30.1436 60.4365 30.1132 60.5046 30.0661C60.5727 30.0189 60.6285 29.9562 60.6677 29.8832L61.4993 28.3328L62.331 29.8832C62.3701 29.9562 62.426 30.0189 62.494 30.0661C62.5621 30.1132 62.6404 30.1436 62.7225 30.1545L64.4877 30.3903L63.2416 31.5084C63.1747 31.5683 63.1244 31.6443 63.0954 31.7293C63.0665 31.8143 63.06 31.9052 63.0764 31.9935L63.3806 33.6244L61.7272 32.8246C61.6562 32.7902 61.5783 32.7723 61.4993 32.7723C61.4204 32.7723 61.3424 32.7902 61.2714 32.8246L59.6175 33.6244L59.9217 31.9935C59.9381 31.9052 59.9316 31.8143 59.9026 31.7293C59.8737 31.6443 59.8234 31.5683 59.7565 31.5084L58.5104 30.3903L60.2761 30.1545Z" fill="#2F4550"/>
<path d="M55.7503 39.2504C55.8889 39.2504 56.0219 39.1953 56.1199 39.0973C56.2179 38.9992 56.273 38.8663 56.273 38.7276V37.1594C56.273 37.0208 56.2179 36.8879 56.1199 36.7898C56.0219 36.6918 55.8889 36.6367 55.7503 36.6367C55.6116 36.6367 55.4787 36.6918 55.3806 36.7898C55.2826 36.8879 55.2275 37.0208 55.2275 37.1594V38.7276C55.2275 38.8663 55.2826 38.9992 55.3806 39.0973C55.4787 39.1953 55.6116 39.2504 55.7503 39.2504Z" fill="#2F4550"/>
<path d="M47.1946 50.9052H45.0876V28.2684C45.0876 28.2252 45.0876 28.182 45.0876 28.1388C45.0876 28.0956 45.0876 28.0524 45.0876 28.0092V23.646C45.0876 23.3004 44.7866 22.998 44.4426 22.998H17.6106C17.2666 22.998 16.9656 23.3004 16.9656 23.646V28.0524C16.9656 28.0956 16.9656 28.1388 16.9656 28.182C16.9656 28.2252 16.9656 28.2684 16.9656 28.3116V50.9484H15.2886C14.9446 50.9484 14.6436 51.2508 14.6436 51.5964C14.6436 51.942 14.9446 52.2444 15.2886 52.2444H17.6106H23.9316H38.1646H44.4856H47.2376C47.5816 52.2444 47.8826 51.942 47.8826 51.5964C47.8396 51.2076 47.5386 50.9052 47.1946 50.9052ZM18.2556 28.7004H23.1146C23.2006 30.0828 23.2866 35.3964 18.2556 36.822V28.7004ZM37.7776 30.99C36.5306 30.8604 35.5416 29.91 35.2836 28.7004H37.6916C37.6486 29.1756 37.6486 29.9964 37.7776 30.99ZM24.4046 28.7004H26.7696C26.5116 29.91 25.5226 30.8172 24.3186 30.99C24.4476 29.9964 24.4046 29.1756 24.4046 28.7004ZM24.0606 32.286C25.4796 32.2428 26.7696 31.4652 27.4576 30.342C28.1886 31.5084 29.5216 32.3292 30.9836 32.3292C32.4456 32.3292 33.7786 31.5516 34.5096 30.342C35.2406 31.5084 36.5306 32.286 37.9496 32.3292C38.2506 33.6252 38.8956 35.0076 39.9706 36.1308C38.2506 42.0924 37.6486 48.8748 37.4766 50.9484H24.5336C24.3616 48.8748 23.7596 42.0924 22.0396 36.0876C23.1576 34.9644 23.7596 33.582 24.0606 32.286ZM28.1886 28.7004H33.8646C33.6066 29.9964 32.4456 30.99 31.0266 30.99C29.6506 30.99 28.4896 29.9964 28.1886 28.7004ZM38.9816 28.7004H43.8406V36.822C38.8096 35.3964 38.8526 30.0828 38.9816 28.7004ZM18.2556 24.294H43.7976V27.4044H18.2556V24.294ZM18.2556 50.9052V38.1612C19.3306 37.902 20.1906 37.5132 20.9216 36.9948C22.4696 42.6108 23.0716 48.8748 23.2006 50.9052H18.2556ZM38.8526 50.9052C39.0246 48.8748 39.5836 42.654 41.1316 36.9948C41.8626 37.47 42.7656 37.902 43.7976 38.1612V50.9052H38.8526Z" fill="#2F4550"/>
</svg>
