<svg width="76" height="74" viewBox="0 0 76 74" fill="none" xmlns="http://www.w3.org/2000/svg">
<path fill-rule="evenodd" clip-rule="evenodd" d="M59.1466 64.251C65.5076 59.6624 72.5987 54.8411 74.3193 46.9938C76.0431 39.1321 71.8919 30.9756 68.0788 23.513C64.5112 16.531 59.9802 9.89348 53.297 5.85084C46.7561 1.89431 39.1196 0.930931 31.7974 1.56668C24.7445 2.17904 18.2134 4.85226 12.9477 9.35416C7.71128 13.8309 4.20877 19.891 2.40488 26.6955C0.527001 33.7791 0.160757 41.3128 2.56258 48.5279C5.12431 56.2233 9.40291 63.764 16.2242 68.2085C23.0483 72.6549 31.3633 73.083 39.1476 72.3653C46.6032 71.6779 53.2002 68.5405 59.1466 64.251Z" stroke="#2F4550" stroke-width="1.5"/>
<path d="M43.0455 53.3636H63.9545V25.1364H65V22H42V25.1364H43.0455V53.3636ZM45.1364 52.3182H44.0909V25.1364H45.1364V52.3182ZM60.8182 52.3182H46.1818V25.1364H60.8182V52.3182ZM62.9091 52.3182H61.8636V25.1364H62.9091V52.3182ZM43.0455 23.0455H63.9545V24.0909H43.0455V23.0455Z" fill="#2F4550"/>
<path d="M49.3182 47.0908C48.9023 47.0908 48.5034 47.256 48.2093 47.5501C47.9152 47.8442 47.75 48.2431 47.75 48.659V49.7045C47.75 50.1204 47.9152 50.5192 48.2093 50.8133C48.5034 51.1074 48.9023 51.2726 49.3182 51.2726H57.6818C58.0977 51.2726 58.4966 51.1074 58.7907 50.8133C59.0848 50.5192 59.25 50.1204 59.25 49.7045V48.659C59.25 48.2431 59.0848 47.8442 58.7907 47.5501C58.4966 47.256 58.0977 47.0908 57.6818 47.0908H49.3182ZM58.2045 48.659V49.7045C58.2045 49.8431 58.1495 49.9761 58.0514 50.0741C57.9534 50.1721 57.8205 50.2272 57.6818 50.2272H49.3182C49.1795 50.2272 49.0466 50.1721 48.9486 50.0741C48.8505 49.9761 48.7955 49.8431 48.7955 49.7045V48.659C48.7955 48.5204 48.8505 48.3874 48.9486 48.2894C49.0466 48.1913 49.1795 48.1363 49.3182 48.1363H57.6818C57.8205 48.1363 57.9534 48.1913 58.0514 48.2894C58.1495 48.3874 58.2045 48.5204 58.2045 48.659Z" fill="#2F4550"/>
<path d="M50.8407 32.0886L50.4011 34.4477C50.383 34.5428 50.3917 34.6412 50.4262 34.7317C50.4607 34.8222 50.5197 34.9013 50.5966 34.9602C50.6735 35.0192 50.7652 35.0556 50.8616 35.0654C50.9579 35.0752 51.0551 35.0581 51.1423 35.0159L53.4993 33.8758L55.8563 35.0159C55.9433 35.0579 56.0403 35.075 56.1364 35.0652C56.2325 35.0554 56.3241 35.0192 56.4008 34.9606C56.4776 34.9019 56.5367 34.8232 56.5714 34.733C56.6061 34.6428 56.6151 34.5448 56.5975 34.4498L56.1579 32.0886L58.0298 30.4096C58.1042 30.3429 58.158 30.2563 58.1847 30.16C58.2114 30.0638 58.2099 29.9618 58.1805 29.8663C58.1511 29.7709 58.0949 29.6858 58.0186 29.6213C57.9424 29.5567 57.8492 29.5154 57.7501 29.5022L55.126 29.1514L53.9598 26.9779C53.9108 26.9001 53.8429 26.8359 53.7623 26.7914C53.6818 26.747 53.5913 26.7236 53.4993 26.7236C53.4073 26.7236 53.3168 26.747 53.2363 26.7914C53.1557 26.8359 53.0878 26.9001 53.0388 26.9779L51.8726 29.1514L49.2485 29.5022C49.1494 29.5154 49.0563 29.5567 48.98 29.6213C48.9037 29.6858 48.8475 29.7709 48.8181 29.8663C48.7887 29.9618 48.7872 30.0638 48.8139 30.16C48.8407 30.2563 48.8944 30.3429 48.9688 30.4096L50.8407 32.0886ZM52.2761 30.1545C52.3582 30.1436 52.4365 30.1132 52.5046 30.0661C52.5727 30.0189 52.6285 29.9562 52.6677 29.8832L53.4993 28.3328L54.331 29.8832C54.3701 29.9562 54.426 30.0189 54.494 30.0661C54.5621 30.1132 54.6404 30.1436 54.7225 30.1545L56.4877 30.3903L55.2416 31.5084C55.1747 31.5683 55.1244 31.6443 55.0954 31.7293C55.0665 31.8143 55.06 31.9052 55.0764 31.9935L55.3806 33.6244L53.7272 32.8246C53.6562 32.7902 53.5783 32.7723 53.4993 32.7723C53.4204 32.7723 53.3424 32.7902 53.2714 32.8246L51.6175 33.6244L51.9217 31.9935C51.9381 31.9052 51.9316 31.8143 51.9026 31.7293C51.8737 31.6443 51.8234 31.5683 51.7565 31.5084L50.5104 30.3903L52.2761 30.1545Z" fill="#2F4550"/>
<path d="M47.7503 39.2504C47.8889 39.2504 48.0219 39.1953 48.1199 39.0973C48.2179 38.9992 48.273 38.8663 48.273 38.7276V37.1594C48.273 37.0208 48.2179 36.8879 48.1199 36.7898C48.0219 36.6918 47.8889 36.6367 47.7503 36.6367C47.6116 36.6367 47.4787 36.6918 47.3806 36.7898C47.2826 36.8879 47.2275 37.0208 47.2275 37.1594V38.7276C47.2275 38.8663 47.2826 38.9992 47.3806 39.0973C47.4787 39.1953 47.6116 39.2504 47.7503 39.2504Z" fill="#2F4550"/>
<path d="M39.1946 50.9052H37.0876V28.2684C37.0876 28.2252 37.0876 28.182 37.0876 28.1388C37.0876 28.0956 37.0876 28.0524 37.0876 28.0092V23.646C37.0876 23.3004 36.7866 22.998 36.4426 22.998H9.61056C9.26656 22.998 8.96556 23.3004 8.96556 23.646V28.0524C8.96556 28.0956 8.96556 28.1388 8.96556 28.182C8.96556 28.2252 8.96556 28.2684 8.96556 28.3116V50.9484H7.28855C6.94455 50.9484 6.64355 51.2508 6.64355 51.5964C6.64355 51.942 6.94455 52.2444 7.28855 52.2444H9.61056H15.9316H30.1646H36.4856H39.2376C39.5816 52.2444 39.8826 51.942 39.8826 51.5964C39.8396 51.2076 39.5386 50.9052 39.1946 50.9052ZM10.2556 28.7004H15.1146C15.2006 30.0828 15.2866 35.3964 10.2556 36.822V28.7004ZM29.7776 30.99C28.5306 30.8604 27.5416 29.91 27.2836 28.7004H29.6916C29.6486 29.1756 29.6486 29.9964 29.7776 30.99ZM16.4046 28.7004H18.7696C18.5116 29.91 17.5226 30.8172 16.3186 30.99C16.4476 29.9964 16.4046 29.1756 16.4046 28.7004ZM16.0606 32.286C17.4796 32.2428 18.7696 31.4652 19.4576 30.342C20.1886 31.5084 21.5216 32.3292 22.9836 32.3292C24.4456 32.3292 25.7786 31.5516 26.5096 30.342C27.2406 31.5084 28.5306 32.286 29.9496 32.3292C30.2506 33.6252 30.8956 35.0076 31.9706 36.1308C30.2506 42.0924 29.6486 48.8748 29.4766 50.9484H16.5336C16.3616 48.8748 15.7596 42.0924 14.0396 36.0876C15.1576 34.9644 15.7596 33.582 16.0606 32.286ZM20.1886 28.7004H25.8646C25.6066 29.9964 24.4456 30.99 23.0266 30.99C21.6506 30.99 20.4896 29.9964 20.1886 28.7004ZM30.9816 28.7004H35.8406V36.822C30.8096 35.3964 30.8526 30.0828 30.9816 28.7004ZM10.2556 24.294H35.7976V27.4044H10.2556V24.294ZM10.2556 50.9052V38.1612C11.3306 37.902 12.1906 37.5132 12.9216 36.9948C14.4696 42.6108 15.0716 48.8748 15.2006 50.9052H10.2556ZM30.8526 50.9052C31.0246 48.8748 31.5836 42.654 33.1316 36.9948C33.8626 37.47 34.7656 37.902 35.7976 38.1612V50.9052H30.8526Z" fill="#2F4550"/>
</svg>
