<svg width="73" height="54" viewBox="0 0 73 54" fill="none" xmlns="http://www.w3.org/2000/svg">
<path d="M23.9167 13.5C27.6447 13.5 30.6667 10.4779 30.6667 6.75C30.6667 3.02208 27.6447 0 23.9167 0C20.1888 0 17.1667 3.02208 17.1667 6.75C17.1667 10.4779 20.1888 13.5 23.9167 13.5Z" fill="#2F4550"/>
<path d="M24.75 37.9163C24.9167 38.6663 25 39.4163 25 40.2497V40.333C25.3333 39.7497 25.75 39.1663 26.25 38.583C27.8333 36.7497 29.8333 35.333 32.0833 34.4997C29.5 32.9997 27.75 30.1663 27.75 26.9163C27.75 23.583 29.5833 20.7497 32.3333 19.2497C30.25 16.9997 27.25 15.583 24 15.583C22.4167 15.583 21 15.9163 19.6667 16.4163C20.0833 17.4997 20.3333 18.583 20.3333 19.833C20.3333 23.083 18.5833 25.833 16 27.4163C20.5 29.083 23.9167 32.9997 24.75 37.9163Z" fill="#2F4550"/>
<path d="M49.0833 13.5C52.8112 13.5 55.8332 10.4779 55.8332 6.75C55.8332 3.02208 52.8112 0 49.0833 0C45.3553 0 42.3333 3.02208 42.3333 6.75C42.3333 10.4779 45.3553 13.5 49.0833 13.5Z" fill="#2F4550"/>
<path d="M57.0833 27.4163C54.5 25.9163 52.75 23.083 52.75 19.833C52.75 18.6663 53 17.4997 53.4167 16.4163C52.0833 15.833 50.5833 15.583 49.0833 15.583C45.8333 15.583 42.8333 16.9997 40.75 19.1663C43.5 20.6663 45.4167 23.583 45.4167 26.9163C45.4167 30.1663 43.6667 32.9163 41.0833 34.4997C43.25 35.2497 45.1667 36.583 46.6667 38.2497C47.1667 38.833 47.5833 39.4163 48 40.083C48 39.1663 48.0833 38.333 48.25 37.4997C49.25 32.833 52.5833 28.9997 57.0833 27.4163Z" fill="#2F4550"/>
<path d="M36.5833 33.75C40.3112 33.75 43.3333 30.7279 43.3333 27C43.3333 23.2721 40.3112 20.25 36.5833 20.25C32.8553 20.25 29.8333 23.2721 29.8333 27C29.8333 30.7279 32.8553 33.75 36.5833 33.75Z" fill="#2F4550"/>
<path d="M47.9998 47.3327C47.9998 40.9993 42.8332 35.916 36.5832 35.916C30.3332 35.916 25.1665 41.0827 25.1665 47.3327V50.916C27.8332 52.5827 32.0832 53.4993 36.5832 53.4993C41.0832 53.4993 45.3332 52.4993 47.9998 50.916V47.3327Z" fill="#2F4550"/>
<path d="M11.4167 26.666C15.1447 26.666 18.1667 23.6439 18.1667 19.916C18.1667 16.1881 15.1447 13.166 11.4167 13.166C7.68883 13.166 4.66675 16.1881 4.66675 19.916C4.66675 23.6439 7.68883 26.666 11.4167 26.666Z" fill="#2F4550"/>
<path d="M22.9167 43.75V40.1667C22.9167 33.8333 17.75 28.75 11.5 28.75C5.25 28.75 0 33.9167 0 40.25V43.8333C2.66667 45.5 6.91667 46.4167 11.4167 46.4167C16 46.3333 20.1667 45.4167 22.9167 43.75Z" fill="#2F4550"/>
<path d="M61.5833 26.666C65.3112 26.666 68.3332 23.6439 68.3332 19.916C68.3332 16.1881 65.3112 13.166 61.5833 13.166C57.8553 13.166 54.8333 16.1881 54.8333 19.916C54.8333 23.6439 57.8553 26.666 61.5833 26.666Z" fill="#2F4550"/>
<path d="M61.5832 28.75C55.2498 28.75 50.1665 33.9167 50.1665 40.1667V43.75C52.8332 45.4167 57.0832 46.3333 61.5832 46.3333C66.0832 46.3333 70.3332 45.3333 72.9998 43.75V40.1667C72.9998 33.9167 67.8332 28.75 61.5832 28.75Z" fill="#2F4550"/>
</svg>
