<svg width="114" height="108" viewBox="0 0 114 108" fill="none" xmlns="http://www.w3.org/2000/svg">
<rect x="0" y="99.4238" width="105" height="8" rx="4" fill="#2F4550"/>
<path fill-rule="evenodd" clip-rule="evenodd" d="M76.1468 79.251C82.5078 74.6624 89.599 69.8411 91.3196 61.9938C93.0433 54.1321 88.8921 45.9756 85.079 38.513C81.5115 31.531 76.9805 24.8935 70.2973 20.8508C63.7564 16.8943 56.1199 15.9309 48.7976 16.5667C41.7448 17.179 35.2137 19.8523 29.9479 24.3542C24.7115 28.8309 21.209 34.891 19.4051 41.6955C17.5272 48.7791 17.161 56.3128 19.5628 63.5279C22.1246 71.2233 26.4032 78.764 33.2244 83.2085C40.0486 87.6549 48.3636 88.083 56.1479 87.3653C63.6035 86.6779 70.2005 83.5405 76.1468 79.251Z" stroke="#2F4550" stroke-width="1.5"/>
<path d="M40.9167 39.5C44.6447 39.5 47.6667 36.4779 47.6667 32.75C47.6667 29.0221 44.6447 26 40.9167 26C37.1888 26 34.1667 29.0221 34.1667 32.75C34.1667 36.4779 37.1888 39.5 40.9167 39.5Z" fill="#2F4550"/>
<path d="M41.75 63.9163C41.9167 64.6663 42 65.4163 42 66.2497V66.333C42.3333 65.7497 42.75 65.1663 43.25 64.583C44.8333 62.7497 46.8333 61.333 49.0833 60.4997C46.5 58.9997 44.75 56.1663 44.75 52.9163C44.75 49.583 46.5833 46.7497 49.3333 45.2497C47.25 42.9997 44.25 41.583 41 41.583C39.4167 41.583 38 41.9163 36.6667 42.4163C37.0833 43.4997 37.3333 44.583 37.3333 45.833C37.3333 49.083 35.5833 51.833 33 53.4163C37.5 55.083 40.9167 58.9997 41.75 63.9163Z" fill="#2F4550"/>
<path d="M66.0833 39.5C69.8112 39.5 72.8332 36.4779 72.8332 32.75C72.8332 29.0221 69.8112 26 66.0833 26C62.3553 26 59.3333 29.0221 59.3333 32.75C59.3333 36.4779 62.3553 39.5 66.0833 39.5Z" fill="#2F4550"/>
<path d="M74.0833 53.4163C71.5 51.9163 69.75 49.083 69.75 45.833C69.75 44.6663 70 43.4997 70.4167 42.4163C69.0833 41.833 67.5833 41.583 66.0833 41.583C62.8333 41.583 59.8333 42.9997 57.75 45.1663C60.5 46.6663 62.4167 49.583 62.4167 52.9163C62.4167 56.1663 60.6667 58.9163 58.0833 60.4997C60.25 61.2497 62.1667 62.583 63.6667 64.2497C64.1667 64.833 64.5833 65.4163 65 66.083C65 65.1663 65.0833 64.333 65.25 63.4997C66.25 58.833 69.5833 54.9997 74.0833 53.4163Z" fill="#2F4550"/>
<path d="M53.5833 59.75C57.3112 59.75 60.3333 56.7279 60.3333 53C60.3333 49.2721 57.3112 46.25 53.5833 46.25C49.8553 46.25 46.8333 49.2721 46.8333 53C46.8333 56.7279 49.8553 59.75 53.5833 59.75Z" fill="#2F4550"/>
<path d="M64.9998 73.3327C64.9998 66.9993 59.8332 61.916 53.5832 61.916C47.3332 61.916 42.1665 67.0827 42.1665 73.3327V76.916C44.8332 78.5827 49.0832 79.4993 53.5832 79.4993C58.0832 79.4993 62.3332 78.4993 64.9998 76.916V73.3327Z" fill="#2F4550"/>
<path d="M28.4167 52.666C32.1447 52.666 35.1667 49.6439 35.1667 45.916C35.1667 42.1881 32.1447 39.166 28.4167 39.166C24.6888 39.166 21.6667 42.1881 21.6667 45.916C21.6667 49.6439 24.6888 52.666 28.4167 52.666Z" fill="#2F4550"/>
<path d="M39.9167 69.75V66.1667C39.9167 59.8333 34.75 54.75 28.5 54.75C22.25 54.75 17 59.9167 17 66.25V69.8333C19.6667 71.5 23.9167 72.4167 28.4167 72.4167C33 72.3333 37.1667 71.4167 39.9167 69.75Z" fill="#2F4550"/>
<path d="M78.5833 52.666C82.3112 52.666 85.3332 49.6439 85.3332 45.916C85.3332 42.1881 82.3112 39.166 78.5833 39.166C74.8553 39.166 71.8333 42.1881 71.8333 45.916C71.8333 49.6439 74.8553 52.666 78.5833 52.666Z" fill="#2F4550"/>
<path d="M78.5832 54.75C72.2498 54.75 67.1665 59.9167 67.1665 66.1667V69.75C69.8332 71.4167 74.0832 72.3333 78.5832 72.3333C83.0832 72.3333 87.3332 71.3333 89.9998 69.75V66.1667C89.9998 59.9167 84.8332 54.75 78.5832 54.75Z" fill="#2F4550"/>
</svg>
