<svg width="105" height="105" viewBox="0 0 105 105" fill="none" xmlns="http://www.w3.org/2000/svg">
<path d="M64.7668 49.428C64.7668 57.7776 58.1554 64.5464 50 64.5464C41.8445 64.5464 35.2332 57.7776 35.2332 49.428C35.2332 41.0783 41.8445 34.3096 50 34.3096C58.1554 34.3096 64.7668 41.0783 64.7668 49.428Z" fill="#2F4550"/>
<path fill-rule="evenodd" clip-rule="evenodd" d="M79.2105 79.9567C78.9157 80.1688 78.6217 80.3803 78.3291 80.5914C71.6155 85.4343 64.1673 88.9765 55.7497 89.7526C46.961 90.5629 37.5732 90.0795 29.8685 85.0595C29.2258 84.6407 28.6032 84.1977 28 83.7322C28.7659 74.9617 40.1845 68 54.1581 68C66.0279 68 76.0541 73.0232 79.2735 79.9113C79.2525 79.9264 79.2315 79.9416 79.2105 79.9567Z" fill="#2F4550"/>
<path fill-rule="evenodd" clip-rule="evenodd" d="M76.1468 79.251C82.5078 74.6624 89.599 69.8411 91.3196 61.9938C93.0433 54.1321 88.8921 45.9756 85.079 38.513C81.5115 31.531 76.9805 24.8935 70.2973 20.8508C63.7564 16.8943 56.1199 15.9309 48.7976 16.5667C41.7448 17.179 35.2137 19.8523 29.9479 24.3542C24.7115 28.8309 21.209 34.891 19.4051 41.6955C17.5272 48.7791 17.161 56.3128 19.5628 63.5279C22.1246 71.2233 26.4032 78.764 33.2244 83.2085C40.0486 87.6549 48.3636 88.083 56.1479 87.3653C63.6035 86.6779 70.2005 83.5405 76.1468 79.251Z" stroke="#2F4550" stroke-width="1.5"/>
</svg>
