<svg width="76" height="74" viewBox="0 0 76 74" fill="none" xmlns="http://www.w3.org/2000/svg">
<path fill-rule="evenodd" clip-rule="evenodd" d="M59.1466 64.251C65.5076 59.6624 72.5987 54.8411 74.3193 46.9938C76.0431 39.1321 71.8919 30.9756 68.0788 23.513C64.5112 16.531 59.9802 9.89348 53.297 5.85084C46.7561 1.89431 39.1196 0.930931 31.7974 1.56668C24.7445 2.17904 18.2134 4.85226 12.9477 9.35416C7.71128 13.8309 4.20877 19.891 2.40488 26.6955C0.527001 33.7791 0.160757 41.3128 2.56258 48.5279C5.12431 56.2233 9.40291 63.764 16.2242 68.2085C23.0483 72.6549 31.3633 73.083 39.1476 72.3653C46.6032 71.6779 53.2002 68.5405 59.1466 64.251Z" stroke="#2F4550" stroke-width="1.5"/>
<path d="M18.6818 63.4545H52.3182V18.0455H54V13H17V18.0455H18.6818V63.4545ZM22.0455 61.7727H20.3636V18.0455H22.0455V61.7727ZM47.2727 61.7727H23.7273V18.0455H47.2727V61.7727ZM50.6364 61.7727H48.9545V18.0455H50.6364V61.7727ZM18.6818 14.6818H52.3182V16.3636H18.6818V14.6818Z" fill="#2F4550"/>
<path d="M28.7727 53.3633C28.1037 53.3633 27.462 53.6291 26.9889 54.1022C26.5158 54.5753 26.25 55.2169 26.25 55.886V57.5678C26.25 58.2369 26.5158 58.8786 26.9889 59.3517C27.462 59.8248 28.1037 60.0906 28.7727 60.0906H42.2273C42.8963 60.0906 43.538 59.8248 44.0111 59.3517C44.4842 58.8786 44.75 58.2369 44.75 57.5678V55.886C44.75 55.2169 44.4842 54.5753 44.0111 54.1022C43.538 53.6291 42.8963 53.3633 42.2273 53.3633H28.7727ZM43.0682 55.886V57.5678C43.0682 57.7908 42.9796 58.0047 42.8219 58.1624C42.6642 58.3201 42.4503 58.4087 42.2273 58.4087H28.7727C28.5497 58.4087 28.3358 58.3201 28.1781 58.1624C28.0204 58.0047 27.9318 57.7908 27.9318 57.5678V55.886C27.9318 55.663 28.0204 55.4491 28.1781 55.2914C28.3358 55.1337 28.5497 55.0451 28.7727 55.0451H42.2273C42.4503 55.0451 42.6642 55.1337 42.8219 55.2914C42.9796 55.4491 43.0682 55.663 43.0682 55.886Z" fill="#2F4550"/>
<path d="M31.2227 29.2293L30.5155 33.0243C30.4864 33.1774 30.5004 33.3355 30.5559 33.4811C30.6114 33.6267 30.7063 33.754 30.83 33.8488C30.9537 33.9436 31.1012 34.0022 31.2563 34.018C31.4113 34.0338 31.5676 34.0062 31.7079 33.9384L35.4996 32.1043L39.2912 33.9384C39.4312 34.0059 39.5872 34.0334 39.7418 34.0177C39.8965 34.002 40.0437 33.9437 40.1673 33.8494C40.2908 33.755 40.3857 33.6283 40.4416 33.4832C40.4974 33.3382 40.512 33.1805 40.4836 33.0277L39.7764 29.2293L42.7877 26.5283C42.9075 26.421 42.9939 26.2817 43.0369 26.1268C43.0799 25.9719 43.0775 25.8079 43.0302 25.6543C42.9829 25.5007 42.8925 25.3639 42.7698 25.26C42.6471 25.1562 42.4972 25.0897 42.3378 25.0684L38.1165 24.5042L36.2404 21.0077C36.1616 20.8824 36.0523 20.7792 35.9227 20.7077C35.7931 20.6362 35.6476 20.5986 35.4996 20.5986C35.3516 20.5986 35.206 20.6362 35.0764 20.7077C34.9469 20.7792 34.8376 20.8824 34.7587 21.0077L32.8827 24.5042L28.6613 25.0684C28.502 25.0897 28.3521 25.1562 28.2294 25.26C28.1067 25.3639 28.0163 25.5007 27.9689 25.6543C27.9216 25.8079 27.9193 25.9719 27.9622 26.1268C28.0052 26.2817 28.0917 26.421 28.2114 26.5283L31.2227 29.2293ZM33.5318 26.1179C33.6639 26.1003 33.7899 26.0515 33.8994 25.9756C34.0089 25.8997 34.0988 25.7989 34.1617 25.6815L35.4996 23.1873L36.8375 25.6815C36.9004 25.7989 36.9903 25.8997 37.0998 25.9756C37.2093 26.0515 37.3352 26.1003 37.4673 26.1179L40.307 26.4972L38.3023 28.2959C38.1948 28.3922 38.1138 28.5146 38.0673 28.6512C38.0207 28.7879 38.0102 28.9343 38.0366 29.0762L38.526 31.6999L35.8662 30.4133C35.7519 30.3579 35.6266 30.3291 35.4996 30.3291C35.3726 30.3291 35.2472 30.3579 35.1329 30.4133L32.4723 31.6999L32.9617 29.0762C32.9881 28.9343 32.9776 28.7879 32.931 28.6512C32.8845 28.5146 32.8035 28.3922 32.696 28.2959L30.6913 26.4972L33.5318 26.1179Z" fill="#2F4550"/>
<path d="M26.2501 40.7504C26.4731 40.7504 26.687 40.6618 26.8447 40.5041C27.0024 40.3464 27.091 40.1326 27.091 39.9095V37.3868C27.091 37.1638 27.0024 36.9499 26.8447 36.7922C26.687 36.6345 26.4731 36.5459 26.2501 36.5459C26.0271 36.5459 25.8132 36.6345 25.6555 36.7922C25.4978 36.9499 25.4092 37.1638 25.4092 37.3868V39.9095C25.4092 40.1326 25.4978 40.3464 25.6555 40.5041C25.8132 40.6618 26.0271 40.7504 26.2501 40.7504Z" fill="#2F4550"/>
</svg>
