<svg width="105" height="93" viewBox="0 0 105 93" fill="none" xmlns="http://www.w3.org/2000/svg">
<rect y="84.4238" width="105" height="8" rx="4" fill="#2F4550"/>
<path fill-rule="evenodd" clip-rule="evenodd" d="M67.1466 64.251C73.5076 59.6624 80.5987 54.8411 82.3193 46.9938C84.0431 39.1321 79.8919 30.9756 76.0788 23.513C72.5112 16.531 67.9802 9.89348 61.297 5.85084C54.7561 1.89431 47.1196 0.930931 39.7974 1.56668C32.7445 2.17904 26.2134 4.85226 20.9477 9.35416C15.7113 13.8309 12.2088 19.891 10.4049 26.6955C8.527 33.7791 8.16076 41.3128 10.5626 48.5279C13.1243 56.2233 17.4029 63.764 24.2242 68.2085C31.0483 72.6549 39.3633 73.083 47.1476 72.3653C54.6032 71.6779 61.2002 68.5405 67.1466 64.251Z" stroke="#2F4550" stroke-width="1.5"/>
<path d="M26.6818 63.4545H60.3182V18.0455H62V13H25V18.0455H26.6818V63.4545ZM30.0455 61.7727H28.3636V18.0455H30.0455V61.7727ZM55.2727 61.7727H31.7273V18.0455H55.2727V61.7727ZM58.6364 61.7727H56.9545V18.0455H58.6364V61.7727ZM26.6818 14.6818H60.3182V16.3636H26.6818V14.6818Z" fill="#2F4550"/>
<path d="M36.7727 53.3633C36.1037 53.3633 35.462 53.6291 34.9889 54.1022C34.5158 54.5753 34.25 55.2169 34.25 55.886V57.5678C34.25 58.2369 34.5158 58.8786 34.9889 59.3517C35.462 59.8248 36.1037 60.0906 36.7727 60.0906H50.2273C50.8963 60.0906 51.538 59.8248 52.0111 59.3517C52.4842 58.8786 52.75 58.2369 52.75 57.5678V55.886C52.75 55.2169 52.4842 54.5753 52.0111 54.1022C51.538 53.6291 50.8963 53.3633 50.2273 53.3633H36.7727ZM51.0682 55.886V57.5678C51.0682 57.7908 50.9796 58.0047 50.8219 58.1624C50.6642 58.3201 50.4503 58.4087 50.2273 58.4087H36.7727C36.5497 58.4087 36.3358 58.3201 36.1781 58.1624C36.0204 58.0047 35.9318 57.7908 35.9318 57.5678V55.886C35.9318 55.663 36.0204 55.4491 36.1781 55.2914C36.3358 55.1337 36.5497 55.0451 36.7727 55.0451H50.2273C50.4503 55.0451 50.6642 55.1337 50.8219 55.2914C50.9796 55.4491 51.0682 55.663 51.0682 55.886Z" fill="#2F4550"/>
<path d="M39.2227 29.2293L38.5155 33.0243C38.4864 33.1774 38.5004 33.3355 38.5559 33.4811C38.6114 33.6267 38.7063 33.754 38.83 33.8488C38.9537 33.9436 39.1012 34.0022 39.2563 34.018C39.4113 34.0338 39.5676 34.0062 39.7079 33.9384L43.4996 32.1043L47.2912 33.9384C47.4312 34.0059 47.5872 34.0334 47.7418 34.0177C47.8965 34.002 48.0437 33.9437 48.1673 33.8494C48.2908 33.755 48.3857 33.6283 48.4416 33.4832C48.4974 33.3382 48.512 33.1805 48.4836 33.0277L47.7764 29.2293L50.7877 26.5283C50.9075 26.421 50.9939 26.2817 51.0369 26.1268C51.0799 25.9719 51.0775 25.8079 51.0302 25.6543C50.9829 25.5007 50.8925 25.3639 50.7698 25.26C50.6471 25.1562 50.4972 25.0897 50.3378 25.0684L46.1165 24.5042L44.2404 21.0077C44.1616 20.8824 44.0523 20.7792 43.9227 20.7077C43.7931 20.6362 43.6476 20.5986 43.4996 20.5986C43.3516 20.5986 43.206 20.6362 43.0764 20.7077C42.9469 20.7792 42.8376 20.8824 42.7587 21.0077L40.8827 24.5042L36.6613 25.0684C36.502 25.0897 36.3521 25.1562 36.2294 25.26C36.1067 25.3639 36.0163 25.5007 35.9689 25.6543C35.9216 25.8079 35.9193 25.9719 35.9622 26.1268C36.0052 26.2817 36.0917 26.421 36.2114 26.5283L39.2227 29.2293ZM41.5318 26.1179C41.6639 26.1003 41.7899 26.0515 41.8994 25.9756C42.0089 25.8997 42.0988 25.7989 42.1617 25.6815L43.4996 23.1873L44.8375 25.6815C44.9004 25.7989 44.9903 25.8997 45.0998 25.9756C45.2093 26.0515 45.3352 26.1003 45.4673 26.1179L48.307 26.4972L46.3023 28.2959C46.1948 28.3922 46.1138 28.5146 46.0673 28.6512C46.0207 28.7879 46.0102 28.9343 46.0366 29.0762L46.526 31.6999L43.8662 30.4133C43.7519 30.3579 43.6266 30.3291 43.4996 30.3291C43.3726 30.3291 43.2472 30.3579 43.1329 30.4133L40.4723 31.6999L40.9617 29.0762C40.9881 28.9343 40.9776 28.7879 40.931 28.6512C40.8845 28.5146 40.8035 28.3922 40.696 28.2959L38.6913 26.4972L41.5318 26.1179Z" fill="#2F4550"/>
<path d="M34.2501 40.7504C34.4731 40.7504 34.687 40.6618 34.8447 40.5041C35.0024 40.3464 35.091 40.1326 35.091 39.9095V37.3868C35.091 37.1638 35.0024 36.9499 34.8447 36.7922C34.687 36.6345 34.4731 36.5459 34.2501 36.5459C34.0271 36.5459 33.8132 36.6345 33.6555 36.7922C33.4978 36.9499 33.4092 37.1638 33.4092 37.3868V39.9095C33.4092 40.1326 33.4978 40.3464 33.6555 40.5041C33.8132 40.6618 34.0271 40.7504 34.2501 40.7504Z" fill="#2F4550"/>
</svg>
