<svg width="76" height="74" viewBox="0 0 76 74" fill="none" xmlns="http://www.w3.org/2000/svg">
<path fill-rule="evenodd" clip-rule="evenodd" d="M59.1466 64.251C65.5076 59.6624 72.5987 54.8411 74.3193 46.9938C76.0431 39.1321 71.8919 30.9756 68.0788 23.513C64.5112 16.531 59.9802 9.89348 53.297 5.85084C46.7561 1.89431 39.1196 0.930931 31.7974 1.56668C24.7445 2.17904 18.2134 4.85226 12.9477 9.35416C7.71128 13.8309 4.20877 19.891 2.40488 26.6955C0.527001 33.7791 0.160757 41.3128 2.56258 48.5279C5.12431 56.2233 9.40291 63.764 16.2242 68.2085C23.0483 72.6549 31.3633 73.083 39.1476 72.3653C46.6032 71.6779 53.2002 68.5405 59.1466 64.251Z" stroke="#2F4550" stroke-width="1.5"/>
<path d="M60.9553 58.2979H57.6723V23.0851C57.6723 23.0179 57.6723 22.9507 57.6723 22.8835C57.6723 22.8163 57.6723 22.7491 57.6723 22.6819V15.8947C57.6723 15.3571 57.2033 14.8867 56.6673 14.8867H14.8593C14.3233 14.8867 13.8543 15.3571 13.8543 15.8947V22.7491C13.8543 22.8163 13.8543 22.8835 13.8543 22.9507C13.8543 23.0179 13.8543 23.0851 13.8543 23.1523V58.3651H11.2413C10.7053 58.3651 10.2363 58.8355 10.2363 59.3731C10.2363 59.9107 10.7053 60.3811 11.2413 60.3811H14.8593H24.7083H46.8853H56.7343H61.0223C61.5583 60.3811 62.0273 59.9107 62.0273 59.3731C61.9603 58.7683 61.4913 58.2979 60.9553 58.2979ZM15.8643 23.7571H23.4353C23.5693 25.9075 23.7033 34.1731 15.8643 36.3907V23.7571ZM46.2823 27.3187C44.3393 27.1171 42.7983 25.6387 42.3963 23.7571H46.1483C46.0813 24.4963 46.0813 25.7731 46.2823 27.3187ZM25.4453 23.7571H29.1303C28.7283 25.6387 27.1873 27.0499 25.3113 27.3187C25.5123 25.7731 25.4453 24.4963 25.4453 23.7571ZM24.9093 29.3347C27.1203 29.2675 29.1303 28.0579 30.2023 26.3107C31.3413 28.1251 33.4183 29.4019 35.6963 29.4019C37.9743 29.4019 40.0513 28.1923 41.1903 26.3107C42.3293 28.1251 44.3393 29.3347 46.5503 29.4019C47.0193 31.4179 48.0243 33.5683 49.6993 35.3155C47.0193 44.5891 46.0813 55.1395 45.8133 58.3651H25.6463C25.3783 55.1395 24.4403 44.5891 21.7603 35.2483C23.5023 33.5011 24.4403 31.3507 24.9093 29.3347ZM31.3413 23.7571H40.1853C39.7833 25.7731 37.9743 27.3187 35.7633 27.3187C33.6193 27.3187 31.8103 25.7731 31.3413 23.7571ZM48.1583 23.7571H55.7293V36.3907C47.8903 34.1731 47.9573 25.9075 48.1583 23.7571ZM15.8643 16.9027H55.6623V21.7411H15.8643V16.9027ZM15.8643 58.2979V38.4739C17.5393 38.0707 18.8793 37.4659 20.0183 36.6595C22.4303 45.3955 23.3683 55.1395 23.5693 58.2979H15.8643ZM47.9573 58.2979C48.2253 55.1395 49.0963 45.4627 51.5083 36.6595C52.6473 37.3987 54.0543 38.0707 55.6623 38.4739V58.2979H47.9573Z" fill="#2F4550"/>
</svg>
