<svg width="105" height="93" viewBox="0 0 105 93" fill="none" xmlns="http://www.w3.org/2000/svg">
<rect y="84.4238" width="105" height="8" rx="4" fill="#2F4550"/>
<path fill-rule="evenodd" clip-rule="evenodd" d="M67.1466 64.251C73.5076 59.6624 80.5987 54.8411 82.3193 46.9938C84.0431 39.1321 79.8919 30.9756 76.0788 23.513C72.5112 16.531 67.9802 9.89348 61.297 5.85084C54.7561 1.89431 47.1196 0.930931 39.7974 1.56668C32.7445 2.17904 26.2134 4.85226 20.9477 9.35416C15.7113 13.8309 12.2088 19.891 10.4049 26.6955C8.527 33.7791 8.16076 41.3128 10.5626 48.5279C13.1243 56.2233 17.4029 63.764 24.2242 68.2085C31.0483 72.6549 39.3633 73.083 47.1476 72.3653C54.6032 71.6779 61.2002 68.5405 67.1466 64.251Z" stroke="#2F4550" stroke-width="1.5"/>
<path d="M68.9553 58.2979H65.6723V23.0851C65.6723 23.0179 65.6723 22.9507 65.6723 22.8835C65.6723 22.8163 65.6723 22.7491 65.6723 22.6819V15.8947C65.6723 15.3571 65.2033 14.8867 64.6673 14.8867H22.8593C22.3233 14.8867 21.8543 15.3571 21.8543 15.8947V22.7491C21.8543 22.8163 21.8543 22.8835 21.8543 22.9507C21.8543 23.0179 21.8543 23.0851 21.8543 23.1523V58.3651H19.2413C18.7053 58.3651 18.2363 58.8355 18.2363 59.3731C18.2363 59.9107 18.7053 60.3811 19.2413 60.3811H22.8593H32.7083H54.8853H64.7343H69.0223C69.5583 60.3811 70.0273 59.9107 70.0273 59.3731C69.9603 58.7683 69.4913 58.2979 68.9553 58.2979ZM23.8643 23.7571H31.4353C31.5693 25.9075 31.7033 34.1731 23.8643 36.3907V23.7571ZM54.2823 27.3187C52.3393 27.1171 50.7983 25.6387 50.3963 23.7571H54.1483C54.0813 24.4963 54.0813 25.7731 54.2823 27.3187ZM33.4453 23.7571H37.1303C36.7283 25.6387 35.1873 27.0499 33.3113 27.3187C33.5123 25.7731 33.4453 24.4963 33.4453 23.7571ZM32.9093 29.3347C35.1203 29.2675 37.1303 28.0579 38.2023 26.3107C39.3413 28.1251 41.4183 29.4019 43.6963 29.4019C45.9743 29.4019 48.0513 28.1923 49.1903 26.3107C50.3293 28.1251 52.3393 29.3347 54.5503 29.4019C55.0193 31.4179 56.0243 33.5683 57.6993 35.3155C55.0193 44.5891 54.0813 55.1395 53.8133 58.3651H33.6463C33.3783 55.1395 32.4403 44.5891 29.7603 35.2483C31.5023 33.5011 32.4403 31.3507 32.9093 29.3347ZM39.3413 23.7571H48.1853C47.7833 25.7731 45.9743 27.3187 43.7633 27.3187C41.6193 27.3187 39.8103 25.7731 39.3413 23.7571ZM56.1583 23.7571H63.7293V36.3907C55.8903 34.1731 55.9573 25.9075 56.1583 23.7571ZM23.8643 16.9027H63.6623V21.7411H23.8643V16.9027ZM23.8643 58.2979V38.4739C25.5393 38.0707 26.8793 37.4659 28.0183 36.6595C30.4303 45.3955 31.3683 55.1395 31.5693 58.2979H23.8643ZM55.9573 58.2979C56.2253 55.1395 57.0963 45.4627 59.5083 36.6595C60.6473 37.3987 62.0543 38.0707 63.6623 38.4739V58.2979H55.9573Z" fill="#2F4550"/>
</svg>
