<svg xmlns="http://www.w3.org/2000/svg" width="70" height="91" viewBox="0 0 70 91" fill="none">
	<path fill-rule="evenodd" clip-rule="evenodd" d="M40.9719 2.62661C34.6462 1.36834 28.0894 2.01413 22.1307 4.4823C16.172 6.95048 11.079 11.1302 7.49578 16.4929C3.91254 21.8556 2 28.1604 2 34.61C2 43.2587 5.43569 51.5532 11.5512 57.6688C17.6668 63.7843 25.9613 67.22 34.61 67.22C41.0597 67.22 47.3645 65.3075 52.7271 61.7242C52.9608 61.5681 53.1921 61.4092 53.4212 61.2474C53.5598 61.0158 53.7894 60.8449 54.0606 60.7842C58.7838 57.2743 62.4781 52.5446 64.7377 47.0893C67.2059 41.1306 67.8517 34.5738 66.5934 28.2481C65.3351 21.9224 62.2293 16.1119 57.6688 11.5513C53.1082 6.99067 47.2976 3.88487 40.9719 2.62661ZM55.28 62.3698C60.2802 58.6467 64.1914 53.6344 66.5855 47.8547C69.205 41.5305 69.8904 34.5716 68.555 27.8579C67.2195 21.1443 63.9233 14.9773 59.083 10.137C54.2427 5.29675 48.0758 2.00047 41.3621 0.665037C34.6484 -0.670397 27.6895 0.0149956 21.3653 2.63454C15.0412 5.25409 9.63583 9.69015 5.83284 15.3817C2.02984 21.0733 0 27.7648 0 34.61C0 43.7892 3.6464 52.5923 10.137 59.083C11.2858 60.2318 12.5071 61.2915 13.79 62.2576V89.96C13.79 90.3287 13.9928 90.6674 14.3178 90.8415C14.6428 91.0156 15.0372 90.9967 15.3441 90.7924L34.5301 78.0212L53.7261 90.7926C54.033 90.9968 54.4273 91.0156 54.7523 90.8415C55.0772 90.6674 55.28 90.3286 55.28 89.96V62.3698ZM53.28 63.7525C47.7114 67.32 41.2327 69.22 34.61 69.22C27.8802 69.22 21.3524 67.26 15.79 63.656V88.0931L33.9759 75.9876C34.3114 75.7642 34.7483 75.7642 35.0839 75.9874L53.28 88.0936V63.7525ZM20.1456 13.0059C25.3893 9.49529 31.7308 8.01155 37.9877 8.83136C44.2447 9.65116 49.9899 12.7185 54.1522 17.4616C58.3145 22.2046 60.6097 28.2996 60.61 34.61C60.61 35.1623 60.1623 35.61 59.61 35.61C59.0578 35.61 58.61 35.1623 58.61 34.6101C58.6098 28.7851 56.4911 23.159 52.6489 18.7808C48.8068 14.4026 43.5035 11.5711 37.7279 10.8144C31.9523 10.0577 26.0986 11.4273 21.2582 14.6679C16.4178 17.9084 12.9212 22.7988 11.4204 28.4271C9.91948 34.0554 10.5168 40.0375 13.1009 45.2579C15.6849 50.4784 20.0794 54.5808 25.465 56.8004C30.8505 59.02 36.8595 59.2051 42.3715 57.3214C47.8834 55.4376 52.5222 51.6135 55.4228 46.5621C55.6978 46.0831 56.309 45.9178 56.788 46.1928C57.2669 46.4678 57.4322 47.079 57.1572 47.558C54.0149 53.0304 48.9896 57.1731 43.0182 59.2139C37.0469 61.2546 30.5372 61.054 24.7029 58.6495C18.8686 56.245 14.1079 51.8006 11.3084 46.1452C8.509 40.4897 7.86194 34.0091 9.48789 27.9118C11.1138 21.8145 14.9018 16.5166 20.1456 13.0059ZM34.5295 19.57C34.9349 19.5698 35.3002 19.8143 35.4546 20.1891L38.8702 28.4801L48.5465 29.2229C48.9426 29.2534 49.2832 29.5153 49.4141 29.8904C49.5451 30.2655 49.4416 30.6825 49.1504 30.9528L42.5141 37.1151L43.4651 46.7013C43.5032 47.0852 43.3171 47.4567 42.9869 47.6561C42.6566 47.8555 42.2411 47.8471 41.9192 47.6346L34.5303 42.7584L27.1513 47.6343C26.8294 47.847 26.4138 47.8556 26.0834 47.6562C25.753 47.4569 25.5668 47.0853 25.6049 46.7013L26.5559 37.1151L19.9195 30.9528C19.6284 30.6825 19.5249 30.2655 19.6559 29.8904C19.7868 29.5153 20.1274 29.2534 20.5235 29.2229L30.1992 28.4801L33.605 20.19C33.7591 19.8151 34.1242 19.5702 34.5295 19.57ZM34.5313 23.1984L31.815 29.81C31.6714 30.1595 31.3432 30.3982 30.9665 30.4271L22.955 31.0422L28.2804 35.9872C28.5096 36.2 28.626 36.5076 28.5951 36.8187L27.8027 44.8067L33.9787 40.7257C34.3129 40.5049 34.7465 40.5048 35.0808 40.7254L41.2675 44.8083L40.4749 36.8187C40.444 36.5076 40.5604 36.2 40.7895 35.9872L46.115 31.0422L38.1035 30.4271C37.7271 30.3982 37.3992 30.1599 37.2554 29.8109L34.5313 23.1984ZM59.2275 39.3278C59.7666 39.4307 60.1221 39.9489 60.0239 40.4889C60.0189 40.516 60.0137 40.5423 60.0083 40.5676L59.8906 41.1561C59.7898 41.6603 59.3231 42.0058 58.8115 41.9551C58.2998 41.9045 57.91 41.4741 57.91 40.96C57.91 40.7204 57.9588 40.5138 57.9912 40.3872C58.0078 40.3222 58.0196 40.2786 58.0286 40.2456C58.0374 40.213 58.0434 40.1908 58.0485 40.1687L58.0594 40.1139C58.1671 39.5757 58.6884 39.2248 59.2275 39.3278Z" fill="#F5AF19"/>
</svg>
