<?xml version="1.0" standalone="no"?>
<!DOCTYPE svg PUBLIC "-//W3C//DTD SVG 20010904//EN"
 "http://www.w3.org/TR/2001/REC-SVG-20010904/DTD/svg10.dtd">
<svg version="1.0" xmlns="http://www.w3.org/2000/svg"
 width="992.000000pt" height="992.000000pt" viewBox="0 0 992.000000 992.000000"
 preserveAspectRatio="xMidYMid meet">
<metadata>
Created by potrace 1.14, written by Peter Selinger 2001-2017
</metadata>
<g transform="translate(0.000000,992.000000) scale(0.100000,-0.100000)"
fill="#000000" stroke="none">
<path d="M4885 9119 c-1803 -194 -3202 -598 -4055 -1169 -235 -157 -445 -349
-580 -529 -89 -117 -184 -296 -224 -418 l-27 -82 4 -358 3 -358 32 -115 c391
-1439 1918 -3351 3507 -4393 700 -458 1356 -722 1975 -793 276 -31 637 -8 895
57 815 208 1572 816 2222 1784 610 910 1099 2160 1258 3219 24 154 25 183 25
673 0 508 0 512 -26 655 -44 238 -109 438 -205 629 -200 395 -486 665 -929
877 -302 145 -646 244 -1086 312 -124 19 -177 20 -1419 19 -709 -1 -1326 -5
-1370 -10z m-2160 -1351 c56 -14 126 -51 154 -82 l25 -27 -26 -26 -26 -26 -34
26 c-146 112 -350 95 -484 -38 -74 -73 -97 -140 -92 -265 3 -82 8 -102 33
-148 32 -60 95 -121 152 -150 121 -62 289 -49 386 30 l39 31 26 -27 26 -26
-28 -29 c-67 -70 -231 -112 -353 -91 -173 29 -300 133 -353 291 -18 53 -21 81
-18 159 3 81 8 105 35 162 93 198 311 294 538 236z m2565 -9 c60 -18 160 -78
160 -97 0 -5 -11 -19 -24 -31 l-24 -23 -46 31 c-188 130 -450 63 -545 -138
-22 -48 -26 -69 -26 -151 0 -88 3 -101 33 -162 38 -78 82 -120 172 -162 58
-28 74 -31 155 -30 98 0 151 17 220 70 l36 27 27 -27 27 -27 -40 -35 c-116
-99 -329 -118 -485 -42 -283 138 -321 548 -68 734 120 88 269 110 428 63z
m1920 5 c62 -18 126 -52 154 -83 20 -22 20 -22 -6 -48 l-26 -26 -35 27 c-144
110 -377 90 -498 -42 -66 -71 -93 -141 -93 -242 0 -72 5 -95 28 -147 31 -69
97 -138 163 -172 100 -50 252 -50 352 2 l46 23 3 147 3 147 40 0 39 0 -2 -167
-3 -167 -40 -27 c-92 -63 -244 -90 -363 -65 -287 60 -436 350 -313 611 93 200
317 293 551 229z m1043 -1 c109 -30 214 -116 264 -218 55 -110 57 -268 5 -379
-97 -208 -334 -302 -570 -225 -199 65 -322 275 -283 484 50 269 301 414 584
338z m-4963 -173 l0 -190 270 0 270 0 2 188 3 187 43 3 42 3 0 -430 0 -431
-45 0 -45 0 0 200 0 200 -267 -2 -268 -3 -3 -198 -2 -198 -43 3 -42 3 -3 415
c-1 228 0 421 3 427 2 8 22 13 45 13 l40 0 0 -190z m1098 -242 l2 -428 -45 0
-45 0 0 431 0 430 43 -3 42 -3 3 -427z m1872 10 c106 -233 195 -427 198 -431
2 -5 -18 -7 -44 -5 l-48 3 -45 100 c-26 55 -50 106 -54 113 -6 9 -67 12 -246
12 l-238 0 -50 -112 -49 -113 -42 -3 c-30 -2 -42 1 -42 10 0 8 45 113 101 233
55 121 141 309 191 418 l91 197 42 0 42 0 193 -422z m1095 -696 c69 -19 175
-61 175 -69 0 -5 -90 -225 -97 -235 -2 -5 -21 0 -41 11 -96 48 -174 66 -287
66 -97 0 -114 -3 -146 -23 -48 -29 -68 -75 -48 -110 23 -42 67 -60 255 -107
97 -24 202 -57 233 -72 78 -38 144 -106 166 -172 23 -70 17 -187 -13 -253 -47
-106 -173 -192 -328 -224 -104 -22 -313 -14 -432 15 -89 22 -232 83 -232 99 0
11 94 220 103 228 3 3 34 -8 69 -24 229 -109 484 -108 523 1 13 38 -9 77 -57
100 -21 10 -106 36 -190 57 -225 57 -270 75 -339 137 -61 56 -82 104 -87 203
-3 70 0 95 18 142 43 116 163 210 310 243 94 21 350 14 445 -13z m-4281 -580
c143 -323 261 -590 263 -595 3 -4 -73 -6 -168 -5 l-173 3 -45 113 -45 112
-259 -2 -259 -3 -46 -112 -45 -113 -164 0 c-108 0 -163 4 -163 11 0 9 102 243
334 769 48 107 108 243 134 303 l46 107 166 0 165 0 259 -588z m1144 572 c206
-42 332 -164 363 -353 28 -166 -39 -327 -172 -413 -27 -17 -49 -35 -49 -38 0
-4 54 -86 120 -181 65 -96 119 -177 120 -181 0 -5 -76 -8 -170 -8 l-169 0 -39
53 c-21 28 -71 100 -111 160 l-71 107 -95 0 -95 0 0 -160 0 -160 -165 0 -165
0 0 595 0 595 310 0 c244 0 327 -3 388 -16z m1570 -111 l-3 -128 -182 -3 -183
-2 0 -465 0 -465 -165 0 -165 0 0 465 0 465 -185 0 -185 0 0 130 0 130 535 0
536 0 -3 -127z m532 -468 l0 -595 -165 0 -165 0 0 595 0 595 165 0 165 0 0
-595z m2430 465 l0 -130 -182 -2 -183 -3 -3 -463 -2 -462 -163 2 -162 3 -3
463 -2 462 -180 0 -180 0 0 130 0 130 530 0 530 0 0 -130z m-5760 -1371 c104
-26 228 -90 297 -155 l58 -54 -85 -81 c-47 -44 -100 -92 -117 -106 l-33 -25
-35 30 c-145 128 -362 149 -517 50 -152 -96 -208 -321 -125 -502 82 -178 294
-257 502 -186 l50 17 3 186 2 187 165 0 165 0 0 -274 0 -275 -27 -19 c-88 -62
-254 -122 -392 -143 -401 -58 -746 137 -853 481 -30 97 -32 289 -4 390 89 326
391 523 771 503 54 -3 133 -13 175 -24z m1012 -416 c4 -466 6 -482 73 -560 45
-53 109 -78 195 -77 121 1 194 57 231 176 17 54 19 98 19 469 l0 409 186 0
186 0 -5 -432 c-3 -249 -9 -452 -15 -478 -50 -213 -172 -352 -368 -416 -84
-27 -99 -29 -249 -28 -146 0 -167 3 -242 27 -146 49 -250 136 -312 264 -62
125 -64 146 -68 626 l-4 437 185 0 185 0 3 -417z m1598 -248 l0 -665 -185 0
-185 0 0 665 0 665 185 0 185 0 0 -665z m1225 637 c262 -71 438 -243 491 -478
24 -110 16 -281 -20 -390 -48 -148 -147 -262 -297 -343 -152 -82 -171 -84
-631 -89 l-408 -3 0 666 0 667 393 -4 c364 -4 398 -6 472 -26z m1835 -112 l0
-140 -332 -2 -333 -3 -3 -117 -3 -118 296 0 295 0 0 -140 0 -140 -295 0 -295
0 0 -125 0 -125 350 0 350 0 0 -140 0 -140 -535 0 -535 0 0 665 0 665 520 0
520 0 0 -140z"/>
<path d="M8030 7697 c-117 -27 -204 -97 -252 -203 -18 -39 -22 -67 -23 -144 0
-88 3 -101 33 -162 51 -105 137 -167 261 -190 156 -29 320 51 388 191 25 50
28 67 28 161 0 97 -2 110 -30 163 -72 144 -242 221 -405 184z"/>
<path d="M6007 7650 c-8 -19 -53 -122 -101 -228 -47 -106 -86 -195 -86 -197 0
-3 92 -5 205 -5 113 0 205 2 205 3 0 5 -187 424 -199 444 -8 15 -11 12 -24
-17z"/>
<path d="M2607 6252 c-20 -48 -54 -131 -76 -186 -23 -54 -38 -102 -35 -107 8
-13 291 -11 299 1 7 11 -131 366 -145 375 -4 2 -24 -35 -43 -83z"/>
<path d="M3850 6229 l0 -181 133 4 c118 3 139 6 182 28 66 35 87 75 83 162 -4
80 -24 113 -88 146 -39 19 -59 22 -177 22 l-133 0 0 -181z"/>
<path d="M6337 4873 c-4 -3 -7 -172 -7 -375 l0 -368 153 0 c104 0 172 5 212
15 114 29 215 123 247 228 7 23 13 83 13 132 0 115 -23 180 -88 251 -86 95
-181 123 -408 124 -64 0 -119 -3 -122 -7z"/>
<path d="M6130 874 c-356 -9 -996 -47 -1008 -59 -3 -3 520 -5 1163 -5 643 0
1166 3 1163 6 -9 8 -271 31 -488 43 -208 11 -656 19 -830 15z"/>
</g>
</svg>
