<svg width="140.4" height="68.4" viewBox="0 0 140.4 68.4" xmlns="http://www.w3.org/2000/svg">
<path fill="#514E86" d="M16,46.8l0,1.2h24.4l0-1.2c0-0.6-0.6-1.2-1.3-1.2H17.3C16.6,45.7,16,46.2,16,46.8 M49.3,30.4
	c0-7.7-6.2-14-13.9-14v0l-17.1,0c-4.2,0-7.7,3.4-7.7,7.7c0,3.5,2.8,6.4,6.4,6.4c2.9,0,5.3-2.3,5.3-5.2c0-0.7-0.2-1.3-0.4-1.8h1.9
	v17.5H26V23.4h1.7v17.5h2.3V23.4h1.8v17.5h2.3V23.4h3.5l0-1.2c0-0.6-0.6-1.2-1.3-1.2H17.8c-2.1,0-3.7,1.4-3.2,3.5
	c0.1,0.6,0.6,1.1,1.2,1.1c0.8,0,1.1-0.6,0.9-1.1c-0.3-0.8,0.2-1.6,1.1-1.6c1.2,0,2.2,1,2.2,2.2c0,1.7-1.4,2.9-3,2.9
	c-2.2,0-4.1-1.8-4.1-4.1c0-3.4,2.4-5.4,5.4-5.4h17.1v0C41.7,18.8,47,24,47,30.4s-5.2,11.7-11.6,11.7c0,0-15.6,0-15.6,0
	c-0.7,0-1.3,0.5-1.3,1.2v1.2h17C43,44.4,49.3,38.1,49.3,30.4"/>
<path fill="#646565" d="M64.6,32.2c0,2.1-1.2,3.6-2.9,3.6h-1.1v-7.2h1.1C63.3,28.6,64.6,30.3,64.6,32.2 M66.4,32.2
	c0-2.4-1.9-4.3-4.4-4.3h-4.1v0.6h1V36h-1v0.6H62c1.3,0,2.2-0.4,3-1.1C66,34.5,66.4,33.4,66.4,32.2"/>
<path fill="#646565" d="M71.8,32H71v-3.4h0.8c0.9,0,1.5,0.6,1.5,1.7C73.3,31.3,72.7,32,71.8,32 M76.4,36.5V36h-0.5
	c-0.3,0-0.4-0.1-0.7-0.6l-1.9-2.9c1.2-0.4,1.8-1.1,1.8-2.3c0-0.7-0.2-1.3-0.6-1.7c-0.5-0.5-1.1-0.6-2.2-0.6h-3.9v0.6h1V36h-1v0.6H72
	V36h-1v-3.3h0.4l2,3.1c0.4,0.7,0.6,0.8,1.4,0.8H76.4z"/>
<polygon fill="#646565" points="82,36 81,36 81,28.4 82,28.4 82,27.9 78.3,27.9 78.3,28.4 79.3,28.4 79.3,36 78.3,36 78.3,36.5 
	82,36.5 "/>
<polygon fill="#646565" points="90.8,34.8 90.1,34.8 90.1,35.8 87.2,35.8 87.2,32.5 89.3,32.5 89.3,33.4 90.1,33.4 90.1,30.8 
	89.3,30.9 89.3,31.8 87.2,31.8 87.2,28.7 90,28.7 90,29.6 90.7,29.6 90.7,27.5 90,27.5 90,27.9 84.6,27.9 84.6,28.4 85.6,28.4 
	85.6,36 84.6,36 84.6,36.5 90.8,36.5 "/>
<polygon fill="#646565" points="102.8,36 101.8,36 101.8,28.4 102.8,28.4 102.8,27.9 99.1,27.9 99.1,28.4 100.1,28.4 100.1,31.8 
	95.8,31.8 95.8,28.4 96.8,28.4 96.8,27.9 93.1,27.9 93.1,28.4 94.1,28.4 94.1,36 93.1,36 93.1,36.5 96.8,36.5 96.8,36 95.8,36 
	95.8,32.5 100.1,32.5 100.1,36 99.1,36 99.1,36.5 102.8,36.5 "/>
<path fill="#646565" d="M109.8,33.1h-2.6l1.3-3.3L109.8,33.1z M113.2,36.5V36h-0.6l-3.3-8.4h-0.8l-3.4,8.4h-0.8v0.6h2.7V36H106l0.9-2.1
	h3.2l0.8,2.1h-0.9v0.6H113.2z"/>
<path fill="#646565" d="M122.9,27.8h-3v0.6h1.1v4.9c0,1.6-0.9,2.5-2.5,2.5c-0.4,0-0.8-0.1-1.1-0.2c-0.7-0.4-0.9-1-0.9-2.3v-4.9h1v-0.6
	h-3.7v0.6h1v5.3c0,1.8,1.4,3,3.5,3c0.7,0,1.3-0.1,1.9-0.4c1.1-0.5,1.6-1.5,1.6-2.9v-4.9h1.1V27.8z"/>
<path fill="#646565" d="M125.3,36.2c0.6,0.4,1.2,0.5,1.9,0.5c1.5,0,2.6-1.1,2.6-2.5c0-0.5-0.1-0.9-0.4-1.4c-0.2-0.4-0.5-0.6-0.8-0.9
	c-0.1-0.1-0.5-0.3-1.1-0.7c-1.3-0.8-1.6-1.1-1.6-1.7c0-0.6,0.5-1.1,1.2-1.1c0.5,0,0.8,0.1,1.4,0.5v0.9h0.7v-2.2h-0.7V28
	c-0.5-0.2-0.9-0.3-1.4-0.3c-1.6,0-2.7,1-2.7,2.4c0,0.6,0.2,1.1,0.5,1.5c0.3,0.4,0.5,0.5,1.8,1.3c1.2,0.8,1.6,1.2,1.6,1.8
	c0,0.7-0.6,1.2-1.4,1.2c-0.6,0-1.1-0.2-1.7-0.6v-1h-0.7v2.4h0.7V36.2z"/>
<polygon fill="#646565" points="60.5,47.6 59.9,47.6 59.9,45.1 61.4,45.1 61.4,45.7 62,45.7 62,43.8 61.4,43.8 61.4,44.5 59.9,44.5 
	59.9,42.2 61.9,42.2 61.9,42.9 62.4,42.9 62.4,41.4 61.9,41.4 61.9,41.6 57.9,41.6 57.9,42 58.7,42 58.7,47.6 57.9,47.6 57.9,48 
	60.5,48 "/>
<path fill="#646565" d="M69.2,44.7c0,1.5-0.9,2.8-1.8,2.8c-1,0-1.8-1.3-1.8-2.8c0-1.5,0.9-2.7,1.8-2.7C68.4,41.9,69.2,43.2,69.2,44.7
	 M70.6,44.7c0-1.8-1.4-3.3-3.2-3.3c-1.8,0-3.2,1.5-3.2,3.3s1.4,3.3,3.2,3.3C69.2,48,70.6,46.5,70.6,44.7"/>
<path fill="#646565" d="M78.8,41.5h-2.2v0.4h0.8v3.6c0,1.2-0.7,1.9-1.8,1.9c-0.3,0-0.6-0.1-0.8-0.2c-0.5-0.3-0.7-0.7-0.7-1.7v-3.6h0.7
	v-0.4h-2.7v0.4h0.7v3.9c0,1.3,1,2.2,2.6,2.2c0.5,0,1-0.1,1.4-0.3c0.8-0.4,1.2-1.1,1.2-2.2v-3.6h0.8V41.5z"/>
<polygon fill="#646565" points="86.2,41.9 87,41.9 87,41.5 84.8,41.5 84.8,41.9 85.6,41.9 85.6,46 82.5,41.5 80.5,41.5 80.5,41.9 
	81.2,41.9 81.5,42.4 81.5,47.5 80.7,47.5 80.7,47.9 82.9,47.9 82.9,47.5 82.2,47.5 82.2,43.3 85.5,48 86.2,48 "/>
<path fill="#646565" d="M93.8,44.8c0,1.5-0.9,2.7-2.1,2.7h-0.8v-5.3h0.8C92.8,42.2,93.8,43.4,93.8,44.8 M95.1,44.8
	c0-1.8-1.4-3.2-3.2-3.2h-3V42h0.7v5.6h-0.7V48h3c0.9,0,1.6-0.3,2.2-0.8C94.8,46.5,95.1,45.7,95.1,44.8"/>
<path fill="#646565" d="M100,45.4h-1.9l1-2.4L100,45.4z M102.4,48v-0.4H102l-2.4-6.2h-0.6l-2.5,6.2H96V48h2v-0.4h-0.8l0.6-1.6h2.3
	l0.6,1.6h-0.7V48H102.4z"/>
<polygon fill="#646565" points="107.8,47.6 106.9,47.6 106.9,42.2 108.6,42.2 108.6,43 109.1,43 109.1,41.4 108.6,41.4 108.6,41.6 
	104,41.6 104,41.4 103.5,41.4 103.5,43 104,43 104,42.2 105.7,42.2 105.7,47.6 104.7,47.6 104.7,48 107.8,48 "/>
<polygon fill="#646565" points="113.8,47.6 113.1,47.6 113.1,42 113.8,42 113.8,41.6 111.1,41.6 111.1,42 111.8,42 111.8,47.6 
	111.1,47.6 111.1,48 113.8,48 "/>
<path fill="#646565" d="M120.5,44.7c0,1.5-0.9,2.8-1.8,2.8c-1,0-1.8-1.3-1.8-2.8c0-1.5,0.9-2.7,1.8-2.7
	C119.6,41.9,120.5,43.2,120.5,44.7 M121.8,44.7c0-1.8-1.4-3.3-3.2-3.3c-1.8,0-3.2,1.5-3.2,3.3s1.4,3.3,3.2,3.3
	C120.4,48,121.8,46.5,121.8,44.7"/>
<polygon fill="#646565" points="128.9,41.9 129.7,41.9 129.7,41.5 127.5,41.5 127.5,41.9 128.2,41.9 128.2,46 125.1,41.5 123.2,41.5 
	123.2,41.9 123.9,41.9 124.2,42.4 124.2,47.5 123.4,47.5 123.4,47.9 125.6,47.9 125.6,47.5 124.8,47.5 124.8,43.3 128.2,48 
	128.9,48 "/>
</svg>
