<svg id="Layer_1" data-name="Layer 1" xmlns="http://www.w3.org/2000/svg" viewBox="0 0 300 300"><defs><style>.cls-1{fill:#4c4c4c;}.cls-2{fill:#7f7f7f;}.cls-3{fill:#b1b1b1;}.cls-4{fill:#313131;}.cls-5{fill:#a0a0a0;}.cls-6{fill:gray;}</style></defs><path class="cls-1" d="M167.26,249.7c-.2-.16-.59-.37-.56-.46a60.58,60.58,0,0,0,1.27-6.55c.21-1.3,0-2.8.58-3.83.68-1.28.1-2.52.53-3.62.63-1.58.07-3.38.67-4.71.73-1.59-.07-3.16.54-4.48.74-1.61.34-3.2.54-4.78.11-.82.46-1.6.56-2.41a18.4,18.4,0,0,0,0-2.35,28.62,28.62,0,0,1,0-2.93c.1-1,.38-2,.57-3,0-2.08-.07-4.15,0-6.22s.51-4,.55-6c.09-4.14-.15-8.3.07-12.43s-.84-8.11-.66-12.2c.11-2.76.26-5.56-.86-8.16l-20.64,17.06a36,36,0,0,1,2.73,2.35c2.94,3.13,6.18,5.94,8.87,9.33a84.13,84.13,0,0,1,7.69,11.35,4.61,4.61,0,0,1,1,2.53v3.93c-.72.69-1.45,1.47-2.28,2.15a3.87,3.87,0,0,1-1.28.44,92,92,0,0,1-7.9-5.2c-2.31-1.62-4.36-3.57-6.76-5.06a9.13,9.13,0,0,1-1.48-1.44c-3.34-3.35-6.76-6.62-10-10.06-2.09-2.21-4-4.64-5.84-7-.91-1.15-1.63-2.46-2.53-3.84,7.67-13,16.82-24.78,28.58-34.52v-5.73h1.19a4.12,4.12,0,0,1,1.23-.57c2.87-.3,5.53-1.41,8.27-2.17a61.25,61.25,0,0,0,8.21-2.94c.59-.26,1.72.4,1.85-.84a3.6,3.6,0,0,1,1.83,2,5.72,5.72,0,0,0,2.68,3.27c1.88.88,2.68,2.63,3.86,4.05a7.9,7.9,0,0,1,1.63,3.43c.27,1.37.87,2.68.7,4.18-.24,2.3.93,4.51.56,6.86-.25,1.58-.4,3.18-.6,4.78s.44,3.09-.57,4.5c-.14.2,0,.58,0,.87-.16,1.14.41,2.34-.34,3.41s.3,2.49-.61,3.6c-.74.91.4,2.37-.82,3.21,0,4-1.83,7.57-2.44,11.43a22.88,22.88,0,0,1-1.4,4.73,13.37,13.37,0,0,0-.91,5.25c0,3.15.09,6.31,0,9.47a45.31,45.31,0,0,1-.66,8.9c-.93,3.94-1.66,7.93-2.74,11.85a108.66,108.66,0,0,1-4.29,12.15c-.55,1.35-1.24,2.65-1.75,4a4.62,4.62,0,0,1-3,3C170.14,251.05,170.14,251.05,167.26,249.7Z"/><path class="cls-2" d="M156,89.11A10.26,10.26,0,0,1,158.13,88a36.72,36.72,0,0,1,3.8-.63c.93.7.64,1.49.3,2.4a37,37,0,0,0-1.45,4.67A1.84,1.84,0,0,0,162,96.88a28.75,28.75,0,0,0,10-9.55c2.17.33,4,1.45,5.93,2.37A27,27,0,0,1,176,93.63c-1.52,2.15-1.51,4.73-2.14,7.09-.49,1.84-.15,3.91-.07,5.88a5.69,5.69,0,0,0,.76,1.69l2.77-3.23v1.24c.1.62-.35,1-.55,1.53-.82,2.08-.86,2.66,0,5.65a35.22,35.22,0,0,1,1.21,5.09c.23,1.65,1.56,2.89,2.54,4.22a19.29,19.29,0,0,0,1.85,1.88c1.32,1.37,1.35,1.7-.12,3a33,33,0,0,1-3.15,2.3c-.29.13-4.25,1.16-4.5,1.19-2.07.19-4.14.37-6.21.61-.32,0-.59.48-.93.55a17.74,17.74,0,0,0-6.59,3.2c-.66.47-1.27.29-1.91.37-2.88-5-4.49-10.5-6.5-15.84-.19-.51,0-1.17-.12-1.72-.66-2.43-.67-2.44-2.89-4.68a7.57,7.57,0,0,1-1.42-9.24c.39-.68,1.07-1.35.85-2.29a44.14,44.14,0,0,0,3.54-6C153.68,93.84,154.82,91.46,156,89.11Z"/><path class="cls-3" d="M177.34,106.3v-1.24l-2.77,3.23a5.69,5.69,0,0,1-.76-1.69c-.08-2-.42-4,.07-5.88.63-2.36.62-4.94,2.14-7.09a27,27,0,0,0,1.91-3.93c2.37,1.19,4.81,2.25,7.09,3.59,4,2.33,8.12,4.29,12,6.78,1.93,1.23,3.72,2.85,5.89,3.57a59.81,59.81,0,0,1,6,2.7,61.21,61.21,0,0,1,7.74,4.15,49.7,49.7,0,0,1,6,4.73,25.5,25.5,0,0,0,8.41,4.72,10.59,10.59,0,0,1,6.85,6.35l-1.82.27.68,1.69L230.72,126c-.32,1,1.37,1.81,0,2.92a5.91,5.91,0,0,1-.68-.65c-.42-.51-.7-1.26-1.23-1.53a6.74,6.74,0,0,1-3.56-4.12c-.14-.42-.86-.66-1.34-.92-.24-.13-.58,0-.82-.16-6-3-12.23-5.3-18.06-8.54a34.61,34.61,0,0,0-8.29-3.53c-2.77-.69-5.43-1.63-8.11-2.58s-5.51-1.92-8.18-3.1c-1.81-.8-2.31-.54-2.56,1.43C177.87,105.66,178.15,106.29,177.34,106.3Z"/><path class="cls-3" d="M156,89.11c-1.18,2.35-2.32,4.73-3.57,7a44.14,44.14,0,0,1-3.54,6c-.15-.2-.32-.57-.46-.57a14.68,14.68,0,0,0-4.23.46c-1.41.5-3.13.2-4.7.08s-3.07.52-4.53-.49c-.4-.28-1.14-.07-1.73-.07-1.28,0-2.57.09-3.84,0a29.37,29.37,0,0,1-3.36-.72c-.44-1.22-1-2.58-1.43-4a14.37,14.37,0,0,1-.59-2.41,16.83,16.83,0,0,0-.51-2.15,27.87,27.87,0,0,1-.67-5.64c-.14-2.2-.92-4.32-.63-6.56a65.29,65.29,0,0,0,.68-7.15A43.48,43.48,0,0,1,124,66.33c1-.61.25-2.13,1.43-2.66a13.5,13.5,0,0,1,2.46-1.18c1.46-.34,3-.41,4.48-.65,1.28-.2,2.54-.49,3.74-.73,2.08,4,2.08,4,0,6a1.31,1.31,0,0,1-.2-.21c-.37-.51-.63-1.28-1.12-1.46-1-.38-1.73.5-2.53.92S130.76,67.53,130,68a8.06,8.06,0,0,1-1.66.56c-.86,1.53.15,3.14.57,4.54.65,2.21.79,4.54,1.62,6.7.39,1,.25,2.27.67,3.28s.12,2.53.66,3.24c.78,1-.13,2.43,1.07,3.14a5.29,5.29,0,0,0,1,3.88c3.63-1.27,7.56-1.41,11.37-2.33a53.79,53.79,0,0,1,7.45-1.38A17.31,17.31,0,0,1,156,89.11Z"/><path class="cls-4" d="M157.78,60.67A6.94,6.94,0,0,1,161,55a9.16,9.16,0,0,1,6.22-2c1.41.12,2.89-.37,4.21.56.22.15.73-.07,1.08-.18a11,11,0,0,1,7.18.45,4.66,4.66,0,0,1,3,4.93,4.18,4.18,0,0,0,.12.72,13.08,13.08,0,0,1,1.6.89,9.72,9.72,0,0,1,3.52,5.33c.42,1.39-.48,2.7-.94,4s-1,2.53-2.41,3.11c-.53.21-.69.79-.74,1.45a5.4,5.4,0,0,1-4.44,5.4c-1.08.29-2.21,1.37-3.41.18,0,0-.26.08-.4.14a3.67,3.67,0,0,0-.76.31,4.56,4.56,0,0,1-4.59.59l.6-1.19c1.6.19,1.92-1.46,3-2-.11-1.28.37-2.64-1-3.51-.2-.12-.15-.71-.16-1.08,0-1.37-.09-2.76,0-4.12a5.63,5.63,0,0,0-.87-3.45c-.32.18-.63.51-.94.52-1.23,0-2.49.24-3.59-.57-2.59.27-5-.52-7.47-1.16-1.82-.46-1.91-.42-2-2.11C157.77,61.65,157.78,61.16,157.78,60.67Z"/><path class="cls-3" d="M157.78,60.67c0,.49,0,1,0,1.47.06,1.69.15,1.65,2,2.11,2.46.64,4.88,1.43,7.47,1.16,1.1.81,2.36.6,3.59.57.31,0,.62-.34.94-.52a5.63,5.63,0,0,1,.87,3.45c-.11,1.36,0,2.75,0,4.12,0,.37,0,1,.16,1.08,1.41.87.93,2.23,1,3.51-1.06.55-1.38,2.2-3,2-.29,0-.72-.13-.85,0-2.79,2.9-2.78,2.94-6.68,4.1A1.71,1.71,0,0,0,161.93,85a3.42,3.42,0,0,0-2.11-.61c-1.21.19-2.07-.6-3-1.22-2.21-1.47-2.82-3.89-3.68-6.13a3.94,3.94,0,0,1,.7-3.74,17.54,17.54,0,0,0,3.39-10.66C157.23,62,156.63,61,157.78,60.67Z"/><path class="cls-3" d="M159,135.92c.64-.08,1.25.1,1.91-.37a17.74,17.74,0,0,1,6.59-3.2c.34-.07.61-.51.93-.55,2.07-.24,4.14-.42,6.21-.61.25,0,4.21-1.06,4.5-1.19-.16,2.11,1.48,3.52,2.11,5.32,0,.09.56,0,.86,0-.13,1.24-1.26.58-1.85.84a61.25,61.25,0,0,1-8.21,2.94c-2.74.76-5.4,1.87-8.27,2.17a4.12,4.12,0,0,0-1.23.57c-.41-1.65-1.27-3.14-1.74-4.76-.22-.73-.68-.46-1.07-.59A2.87,2.87,0,0,1,159,135.92Z"/><path class="cls-5" d="M161.93,85a1.71,1.71,0,0,1,1.36-1.21c3.9-1.16,3.89-1.2,6.68-4.1.13-.15.56,0,.85,0l-.6,1.19A20.46,20.46,0,0,0,172,87.33a28.75,28.75,0,0,1-10,9.55,1.84,1.84,0,0,1-1.18-2.48,37,37,0,0,1,1.45-4.67c.34-.91.63-1.7-.3-2.4Z"/><path class="cls-6" d="M167.26,249.7c2.88,1.35,2.88,1.35,5.93.59v1.77c-1.46,2.9-4.34,3-6.69,4-2.58,1-5.35.94-8.4.69.34-.53.44-.94.69-1.07,1.3-.64,2.7-1.09,3.94-1.82a46.08,46.08,0,0,0,4.31-3.06C167.26,250.59,167.19,250.06,167.26,249.7Z"/><path class="cls-6" d="M167.26,214.74a3.87,3.87,0,0,0,1.28-.44c.83-.68,1.56-1.46,2.28-2.15v-3.93c1,.09.48.85.58,1.33s-.19,1,.6,1c-.19,1-.47,2-.57,3a28.62,28.62,0,0,0,0,2.93c-.39.37-.94.66-1.16,1.11a19,19,0,0,1-4.55,5.45,12.7,12.7,0,0,1-2.28,1.36,2.76,2.76,0,0,1,.09-2.74C164.85,219.43,166,217.06,167.26,214.74Z"/></svg>