<svg xmlns="http://www.w3.org/2000/svg" viewBox="0 0 222.87 130.48"><defs><style>.cls-1{fill:#2f4550;}.cls-2{fill:#e9c268;}</style></defs><g id="Layer_2" data-name="Layer 2"><g id="Layer_1-2" data-name="Layer 1"><path class="cls-1" d="M13.48,26.78a13.67,13.67,0,0,1-5.27-5.13A14.32,14.32,0,0,1,6.3,14.31,14.31,14.31,0,0,1,8.21,7,13.52,13.52,0,0,1,13.5,1.85,15.5,15.5,0,0,1,21.06,0a15.61,15.61,0,0,1,5.79,1.05,11.87,11.87,0,0,1,4.5,3.05L29.46,6a11.23,11.23,0,0,0-8.32-3.34,12.19,12.19,0,0,0-6.07,1.53,11.16,11.16,0,0,0-4.28,4.18,11.51,11.51,0,0,0-1.55,6,11.51,11.51,0,0,0,1.55,6,11.09,11.09,0,0,0,4.28,4.18A12.19,12.19,0,0,0,21.14,26a11,11,0,0,0,8.32-3.38l1.89,1.89a12.16,12.16,0,0,1-4.52,3.08A15.59,15.59,0,0,1,21,28.62,15.39,15.39,0,0,1,13.48,26.78Z"/><path class="cls-1" d="M64.44.24V28.38H61.5v-13H43.89v13h-3V.24h3V12.78H61.5V.24Z"/><path class="cls-1" d="M76.82.24h3V28.38h-3Z"/><path class="cls-1" d="M96.86,26.78a13.67,13.67,0,0,1-5.27-5.13,14.32,14.32,0,0,1-1.91-7.34A14.31,14.31,0,0,1,91.59,7a13.52,13.52,0,0,1,5.29-5.13,16.42,16.42,0,0,1,13.35-.8,11.87,11.87,0,0,1,4.5,3.05L112.84,6a11.23,11.23,0,0,0-8.32-3.34,12.19,12.19,0,0,0-6.07,1.53,11.16,11.16,0,0,0-4.28,4.18,11.51,11.51,0,0,0-1.55,6,11.51,11.51,0,0,0,1.55,6,11.09,11.09,0,0,0,4.28,4.18A12.19,12.19,0,0,0,104.52,26a11,11,0,0,0,8.32-3.38l1.89,1.89a12.16,12.16,0,0,1-4.52,3.08,15.59,15.59,0,0,1-5.81,1.06A15.39,15.39,0,0,1,96.86,26.78Z"/><path class="cls-1" d="M141.22,20.87H125.54l-3.37,7.51h-3.1L131.94.24h2.93l12.87,28.14H144.6Zm-1.08-2.42L133.38,3.34l-6.75,15.11Z"/><path class="cls-1" d="M175,14.31h2.85V25.05a13.85,13.85,0,0,1-4.66,2.65,17.28,17.28,0,0,1-5.67.92,15.57,15.57,0,0,1-7.6-1.84,13.78,13.78,0,0,1-5.31-5.13,14.24,14.24,0,0,1-1.93-7.34A14.23,14.23,0,0,1,154.65,7,13.64,13.64,0,0,1,160,1.85,15.68,15.68,0,0,1,167.6,0a16.6,16.6,0,0,1,5.91,1,11.84,11.84,0,0,1,4.54,3L176.2,6a11.55,11.55,0,0,0-8.48-3.3,12.67,12.67,0,0,0-6.17,1.51,11.06,11.06,0,0,0-4.32,4.18,11.53,11.53,0,0,0-1.57,6,11.43,11.43,0,0,0,1.57,6,11.22,11.22,0,0,0,4.3,4.18A13.36,13.36,0,0,0,175,23.8Z"/><path class="cls-1" d="M194.23,26.75a13.6,13.6,0,0,1-5.3-5.12A14.13,14.13,0,0,1,187,14.31,14.12,14.12,0,0,1,188.93,7a13.62,13.62,0,0,1,5.3-5.13,16.29,16.29,0,0,1,15.12,0A13.66,13.66,0,0,1,214.64,7a14.23,14.23,0,0,1,1.93,7.33,14.24,14.24,0,0,1-1.93,7.34,13.8,13.8,0,0,1-5.29,5.13,16.33,16.33,0,0,1-15.12,0Zm13.61-2.29a10.87,10.87,0,0,0,4.22-4.18,11.79,11.79,0,0,0,1.53-6,11.79,11.79,0,0,0-1.53-6,10.94,10.94,0,0,0-4.22-4.18,12.16,12.16,0,0,0-6-1.51,12.31,12.31,0,0,0-6.05,1.51,11,11,0,0,0-4.26,4.18,11.71,11.71,0,0,0-1.55,6,11.71,11.71,0,0,0,1.55,6,11,11,0,0,0,4.26,4.18A12.21,12.21,0,0,0,201.81,26,12.05,12.05,0,0,0,207.84,24.46Z"/><path class="cls-2" d="M31,68H14.42l-3.09,7.63H0L17.34,36.39H28.28L45.67,75.67H34.12Zm-3.26-8.19L22.72,47.28l-5,12.57Z"/><path class="cls-2" d="M68.23,65.23H62.17V75.67H51.06V36.39H69a22.37,22.37,0,0,1,9.26,1.77,13.71,13.71,0,0,1,6.06,5.05,13.86,13.86,0,0,1,2.14,7.71,13.66,13.66,0,0,1-2,7.44,13.37,13.37,0,0,1-5.69,5l8.47,12.35H75.36ZM73.5,46.66a7.66,7.66,0,0,0-5.16-1.52H62.17V56.65h6.17a7.77,7.77,0,0,0,5.16-1.49,5.26,5.26,0,0,0,1.74-4.24A5.35,5.35,0,0,0,73.5,46.66Z"/><path class="cls-2" d="M102.62,45.2H90.56V36.39h35.18V45.2h-12V75.67H102.62Z"/><path class="cls-2" d="M132.14,36.39h11.11V75.67H132.14Z"/><path class="cls-2" d="M158,75.28a22.85,22.85,0,0,1-7.29-3.15l3.64-8.19a23.61,23.61,0,0,0,6.12,2.81,23.29,23.29,0,0,0,6.84,1.06c4.27,0,6.4-1.06,6.4-3.2a2.64,2.64,0,0,0-1.82-2.49A34,34,0,0,0,166,60.41a56.47,56.47,0,0,1-7.4-2,12.42,12.42,0,0,1-5.11-3.51,9.49,9.49,0,0,1-2.13-6.51,11.27,11.27,0,0,1,2-6.48,13.19,13.19,0,0,1,5.87-4.57,24.1,24.1,0,0,1,9.56-1.68,33.69,33.69,0,0,1,7.63.87A23.3,23.3,0,0,1,183,39l-3.42,8.25a22.86,22.86,0,0,0-10.88-3,9.09,9.09,0,0,0-4.83,1,2.93,2.93,0,0,0-1.51,2.55,2.53,2.53,0,0,0,1.79,2.36,33.52,33.52,0,0,0,5.78,1.63,53.78,53.78,0,0,1,7.44,2,12.85,12.85,0,0,1,5.1,3.48,9.29,9.29,0,0,1,2.16,6.48,11,11,0,0,1-2,6.4,13.41,13.41,0,0,1-5.89,4.57,23.86,23.86,0,0,1-9.54,1.71A36.55,36.55,0,0,1,158,75.28Z"/><path class="cls-2" d="M199.75,45.2H187.69V36.39h35.18V45.2h-12V75.67H199.75Z"/><path class="cls-2" d="M33.79,106.65h11v18.24A29,29,0,0,1,36.12,129a34.68,34.68,0,0,1-9.81,1.44,26.24,26.24,0,0,1-12.46-2.92,21.79,21.79,0,0,1-8.68-8.15,23.82,23.82,0,0,1,0-23.64,21.72,21.72,0,0,1,8.75-8.15A26.86,26.86,0,0,1,26.56,84.7a28.22,28.22,0,0,1,11.07,2.07,21.29,21.29,0,0,1,8.17,6l-7.92,7.17A14,14,0,0,0,27.19,95a11.85,11.85,0,0,0-12.58,12.58,13.29,13.29,0,0,0,1.57,6.51,11.24,11.24,0,0,0,4.4,4.46,12.92,12.92,0,0,0,6.48,1.61,15.84,15.84,0,0,0,6.73-1.45Z"/><path class="cls-2" d="M60.3,125.14q-5.44-5.36-5.44-15.16V85.58H67.31v24q0,10.58,8.37,10.57T84,109.6v-24H96.25V110q0,9.81-5.44,15.16t-15.26,5.34Q65.74,130.48,60.3,125.14Z"/><path class="cls-2" d="M107.19,85.58h12.45v44H107.19Z"/><path class="cls-2" d="M131,85.58h20.82a29.21,29.21,0,0,1,12.83,2.7A20.4,20.4,0,0,1,173.36,96a23.54,23.54,0,0,1,0,23.28,20.4,20.4,0,0,1-8.68,7.67,29.21,29.21,0,0,1-12.83,2.7H131Zm20.31,34.09a12.76,12.76,0,0,0,9.09-3.21q3.44-3.21,3.43-8.87t-3.43-8.87a12.76,12.76,0,0,0-9.09-3.21h-7.86v24.16Z"/><path class="cls-2" d="M220.84,120v9.62H185.49v-44H220V95.2h-22.2v7.42h19.56v9.31H197.82v8Z"/></g></g></svg>