<svg id="Layer_1" data-name="Layer 1" xmlns="http://www.w3.org/2000/svg" viewBox="0 0 300 300"><defs><style>.cls-1{fill:#555;}.cls-2{fill:#b1b1b1;}.cls-3{fill:#171717;}.cls-4{fill:#a5a5a5;}.cls-5{fill:#3f3f3f;}.cls-6{fill:#3c3c3c;}</style></defs><path class="cls-1" d="M118.86,197.34c-1.68.43-3.16-.62-4.79-.63-.37,0-.84-.48-1.08-.86-.11-.19.22-.64.34-1,.66-2,1.27-4,2-6s.91-4.1,1.69-6.1c.56-1.45.44-3.17.67-4.76.15-1,.44-2,.57-3s-.29-2.14.61-3c-.13-2.11.73-4,1.09-6,.57-3.23,2-6.09,3.13-9.09a4.46,4.46,0,0,0,.47-2.72c-.71-2.27-.6-4.65-1.14-6.93-.67-2.78-1.25-5.59-2-8.37s-1.91-5.72-2.74-8.62a2.29,2.29,0,0,0-1.26-1.68,10.74,10.74,0,0,1-4.12-3.51c-.26-.56-.52-1.11-.77-1.66a2.53,2.53,0,0,1,.18-3.08c1,.85,2.4.15,3.23.7,1.17.77,2.27.3,3.37.47a25,25,0,0,0,3.3.66c2.43.08,4.77-.54,7.15-.6a18,18,0,0,0,4.92-1c2.78-.88,5.52-1.88,8.25-2.82v-6.88c.19.15.56.3.56.46,0,2.56.19,5.13,0,7.67s.67,5.14.63,7.73c0,1,0,2,0,2.95a5.19,5.19,0,0,0,1.12,3.39c2.25,3.07,4.41,6.22,6.47,9.42a5.8,5.8,0,0,0,3.49,2.91,6.57,6.57,0,0,1,2.06,1.42c1.56,1.23,3.1,2.5,4.65,3.75-.31,1.1.72,1.48,1.19,2.15,1.6,2.26,2.3,4.94,3.55,7.36a21.55,21.55,0,0,1,1.17,2.16c1.55,4.12,4.62,6.68,8.47,8.48.91.43,1.77.95,2.8,1.51,0,.32.17.88,0,1.25-.75,1.44-.52,3-.57,4.48,0,.43.23,1-.58,1.05V177.3a8.16,8.16,0,0,1-4.83,3.92,9,9,0,0,1-5.25.71,8.39,8.39,0,0,0-1.67.21c-3.34,1.2-5.36,2.42-7,5.36s-4.35,3.8-7.45,3.91c-1,0-2,0-2.93,0-.16,0-.31.37-.46.57-1.07-.86-2.27-.58-3.18-.56l-1,1.15c-.25-.2-.5-.55-.76-.57a22,22,0,0,0-3.25,0c-1,.09-2,.42-3,.56a17,17,0,0,0-7,2.45c-2.13,1.37-4.37,2.47-7,2.31C121,197.28,119.94,197.34,118.86,197.34Z"/><path class="cls-2" d="M147.3,192c.15-.2.3-.56.46-.57,1-.05,2,0,2.93,0,3.1-.11,5.7-.88,7.45-3.91s3.7-4.16,7-5.36a8.39,8.39,0,0,1,1.67-.21,4.7,4.7,0,0,0,1.19,3.56c.11.62-1.27.92-.36,1.74a1.15,1.15,0,0,1,.35.73c.21,2.88.37,5.76.62,8.63.12,1.51.46,3,.55,4.5a43.54,43.54,0,0,0,.09,4.72,22.77,22.77,0,0,0,1.53,4.09A100.94,100.94,0,0,1,174,220.12a63.59,63.59,0,0,1,1.58,7.59c.39,2.83,1,5.69.76,8.63-.13,1.38-.41,2.88.52,4.21a1.36,1.36,0,0,1,0,1.15c-1.09,2.23-.42,4.58-.55,6.87a12.45,12.45,0,0,1-.58,3.62c-.4,1.13.41,2.46-.57,3.64a1.91,1.91,0,0,0,.24,1.86c1.19,1,.91,2.23.78,3.6-1.75.48-2.6,2.08-3.46,3.44a4.9,4.9,0,0,1-3.94,2.66c-.31,0-.6.39-1,.67-.48-.88-.64-1.54.09-2.15a12.31,12.31,0,0,0,2.76-3.89c1.16-2.17,1-4.18.39-6.5-1.47-5.6-4.2-10.76-5.42-16.42-1.67-2.38-2.06-5.27-3.08-7.9s-1.86-5.39-2.94-8c-2-4.71-3.47-9.61-5.63-14.25-1.72-3.71-2.95-7.66-4.3-11.54a1.68,1.68,0,0,0-1.91-1.31c-1.86,0-3.73,0-5.58,0-.89,2.18-1.9,4.24-2.57,6.41s-2.08,4.08-2.51,6.38a9.25,9.25,0,0,1-1.21,2.44c-.13.25-.49.51-.44.69.4,1.78-.66,3.36-.67,5.09,0,1.2.38,2.4-.47,3.66-.62.92.2,2.34-.58,3.61-.51.83-.42,2.17-.58,3.26-.35,2.42-1.35,4.62-1.84,7a40.16,40.16,0,0,1-2.15,5.92,57.23,57.23,0,0,1-3.87,8.46c-2,3.51-3.8,7.23-6.51,10.35-.61.7-1.93,1.59-.56,2.83-.25,1.1-.53,2.19-1.72,2.68-1,.41-2,.81-3.06,1.18-.69.25-1.58.25-2.06.71-1.7,1.64-3.32.88-5,.24-.06-1.53,1.25-1.72,2-1.92a10.12,10.12,0,0,0,5.94-4.85,2.07,2.07,0,0,0,.39-.73c.22-1.69.38-3.39.61-5.08.16-1.2.41-2.4.58-3.6s-.39-2.53.58-3.62c.1-.1,0-.38,0-.58a55.45,55.45,0,0,1,.67-7.43c.39-1.82.17-3.67.6-5.37s.14-3.68.59-5.38.18-3.66.58-5.39c.51-2.2.14-4.46.63-6.56a37.14,37.14,0,0,0,.5-5.1c.11-1.21.46-2.4.55-3.61s-.35-2.72.11-3.81c.8-1.92.3-3.82.53-5.67-.55-1-2,.39-2.39-1,1.08,0,2.17-.06,3.25,0,2.66.16,4.9-.94,7-2.31a17,17,0,0,1,7-2.45c1-.14,2-.47,3-.56a22,22,0,0,1,3.25,0c.26,0,.51.37.76.57-.21.94-.43,1.88-.64,2.83h6.14Z"/><path class="cls-2" d="M142,110.83v6.88c-2.73.94-5.47,1.94-8.25,2.82a18,18,0,0,1-4.92,1c-2.38.06-4.72.68-7.15.6a25,25,0,0,1-3.3-.66c-1.1-.17-2.2.3-3.37-.47-.83-.55-2.26.15-3.23-.7a19.85,19.85,0,0,1,1.06-3.1c2.2-4.24,2.68-8.86,3.08-13.49,1.07-2.23,3.21-2.68,5.32-3.15-.27-1.14-.52-2.21-.79-3.32-.27,0-.63-.16-.82,0a3.39,3.39,0,0,1-3.94,0c-1-.71-2.59-1-2.73-2.62-2.17-2.14-2.16-4.54-1.25-7.32a14.93,14.93,0,0,0,.7-5.94c-.08-.9-.42-2,.49-2.76a4.92,4.92,0,0,0-.53-.89l.92-1.15a5.87,5.87,0,0,0,2.15,1.24,57.76,57.76,0,0,0,10,2.17c1.91.34,3.48.74,4.51,2,.29,2.62.56,5,.82,7.39l-3,2.57L131,98.39l3.36-.6a14.2,14.2,0,0,1,3.59-.54,13.09,13.09,0,0,0,8.06-2c.39-.22.93-.18,1.3-.42.81-.54,2.06-.52,2.35-1.76a3.84,3.84,0,0,0,1.92-.38c1.67-1.09,3.76-1.48,5.26-2.94A192.24,192.24,0,0,1,149.73,71a4.48,4.48,0,0,0-1-1.68c-1.39-1.6-3.24-2.77-4.23-4.75-.23-.47-1-.69-1.55-1a2.37,2.37,0,0,1,2.51-.22c.22-2-1.6-3.64-1.09-5.67l2,.5-1-1.09A3.31,3.31,0,0,1,149,58.32,14.14,14.14,0,0,1,152,64.14a19.71,19.71,0,0,0,3.15,7,58.87,58.87,0,0,1,7.7,14c.84,2.3,1.61,4.65,2.59,6.91a2.17,2.17,0,0,1-.91,3c-1.43,1-3,1.81-4.45,2.81a40.67,40.67,0,0,0-4.52,2.94,4.79,4.79,0,0,0-1.09.22c-2.56,1.17-4.94,2.67-7.65,3.58-1.45.48-2.84,1.18-4.35,1.57-.38.1-1,.89-.89,1C142.33,108.33,141.8,109.61,142,110.83Z"/><path class="cls-3" d="M142,110.83c-.17-1.22.36-2.5-.35-3.7-.08-.12.51-.91.89-1,1.51-.39,2.9-1.09,4.35-1.57,2.71-.91,5.09-2.41,7.65-3.58a4.79,4.79,0,0,1,1.09-.22,56.15,56.15,0,0,1,1.87,6c.58,2.5.31,5,.51,7.44.37,4.58,2.16,8.26,6.61,10.26a10.82,10.82,0,0,1,4.57,3.19,4.37,4.37,0,0,1,.65,1.2,12.84,12.84,0,0,1,.72,6.36,23.86,23.86,0,0,1-1.78,6.08,26.45,26.45,0,0,1-5,7.36,8.33,8.33,0,0,1-2.78,1.86c-1.55-1.25-3.09-2.52-4.65-3.75a6.57,6.57,0,0,0-2.06-1.42,5.8,5.8,0,0,1-3.49-2.91c-2.06-3.2-4.22-6.35-6.47-9.42a5.19,5.19,0,0,1-1.12-3.39c.05-1,0-2,0-2.95,0-2.59-.84-5.09-.63-7.73s0-5.11,0-7.67C142.53,111.13,142.16,111,142,110.83Z"/><path class="cls-3" d="M149.67,93.05c-.29,1.24-1.54,1.22-2.35,1.76-.37.24-.91.2-1.3.42a13.09,13.09,0,0,1-8.06,2,14.2,14.2,0,0,0-3.59.54l-3.36.6-3.28-6.54,3-2.57c-.26-2.41-.53-4.77-.82-7.39-1-1.25-2.6-1.65-4.51-2a57.76,57.76,0,0,1-10-2.17,5.87,5.87,0,0,1-2.15-1.24l-.92,1.15c-.15-.94-1.66-1.22-1.19-2.47-1.17-1-.3-2.06.2-2.65a12.38,12.38,0,0,1,6.15-4.37,9.85,9.85,0,0,0,1.53-.59c3.45-1.59,7.14-1.32,10.75-1.11a14,14,0,0,1,6.64,2.46,18.41,18.41,0,0,1,7.52,8.64,12.67,12.67,0,0,1,1,4,18.87,18.87,0,0,0,4.2,11.26C149.28,93,149.5,93,149.67,93.05Z"/><path class="cls-4" d="M115.89,103.72c-.4,4.63-.88,9.25-3.08,13.49a19.85,19.85,0,0,0-1.06,3.1,2.53,2.53,0,0,0-.18,3.08c.25.55.51,1.1.77,1.66-1.31-.12-1.8.85-2.38,1.75a7,7,0,0,1-1.25,1.55c-1.24,1.05-2.55,2-4.13,3.25a7.49,7.49,0,0,1-1.77-.41,64.75,64.75,0,0,1-12.53-7.69,78.87,78.87,0,0,1-6.84-6.33,4.23,4.23,0,0,0-2.89-1.59,4.16,4.16,0,0,1-3.41-1.77c-2.43-3.13-2.8-4.56-1.31-7.66l1.42-.17.35-2.14c.9,2.39,3.23,3,4,5,1,2.56,3.12,3.61,5.34,4.76A153.13,153.13,0,0,1,101,121.72c.91.6,1.62.55,2.22-.32q4-5.75,7.92-11.53c1.21-1.77,2.39-3.56,3.63-5.3A4.48,4.48,0,0,1,115.89,103.72Z"/><path class="cls-5" d="M168,185.49a4.7,4.7,0,0,1-1.19-3.56,9,9,0,0,0,5.25-.71,8.16,8.16,0,0,0,4.83-3.92V179c.09,2.85-2.57,5-4.72,5.37A34.4,34.4,0,0,0,168,185.49Z"/><path class="cls-6" d="M147.3,192l1.35,3.42h-6.14c.21-1,.43-1.89.64-2.83l1-1.15C145,191.43,146.23,191.15,147.3,192Z"/></svg>