<svg id="Layer_1" data-name="Layer 1" xmlns="http://www.w3.org/2000/svg" viewBox="0 0 300 300"><defs><style>.cls-1{fill:#a3a3a3;}.cls-2{fill:#4c4c4c;}.cls-3{fill:#b1b1b1;}.cls-4{fill:#a0a0a0;}.cls-5{fill:#7f7f7f;}.cls-6{fill:#171717;}.cls-7{fill:#181818;}.cls-8{fill:#f0f0f0;}</style></defs><path class="cls-1" d="M178.61,164.56c1.77,0,3.55,0,5.32,0,3.68-.07,7.29,1,11,.6,1.52.82,3.18.47,4.78.62s3.19.41,4.76.65a50,50,0,0,1,9.35,2.36,8.15,8.15,0,0,1,4.91,4.91,9.7,9.7,0,0,1,0,5.47c-.71,2.45-1,5-2.13,7.38-.87,1.9-1.41,4-2.15,5.9-.92,2.38-1.94,4.71-2.68,7.17a34.41,34.41,0,0,1-2,4.5c-3.16,6.78-6.58,13.43-9.8,20.18-.63,1.32-1.7,1.54-2.82,1.91a2.79,2.79,0,0,0-.77.58,10.15,10.15,0,0,1-2.34,0c-2-.49-4.25-.73-5.37-2.94-.94-1.33-1.87-2.63-.72-4.35a2.85,2.85,0,0,0,.13-1.42,26.94,26.94,0,0,1,1.06-6.36c.39-1.71.72-3.45,1.1-5.18a70.75,70.75,0,0,1,2.6-8.7,60.8,60.8,0,0,1,4.74-10.6,4.46,4.46,0,0,0-1.47-.69c-4.56-.24-9.16-.11-13.66-.7-5.07-.67-10.11-.37-15.16-.51-.49,0-1,0-1.73,0,.28,1.7-.59,3.39.54,5,.28.4.06,1.15.06,1.74,0,6.51,0,13,0,19.54a28.5,28.5,0,0,1-.57,4.19c-.21,1.4.55,2.94-.59,4.2.21,3.17-1.13,6-1.8,9a26,26,0,0,1-1.61,4.95c-2.16,4.83-4.34,9.66-6.7,14.4-1.8,3.61-3.94,7-5.81,10.62-2.75,5.25-6.07,10.13-9.23,15.13a1.36,1.36,0,0,1-1.51.62,9.37,9.37,0,0,1-5.58-1.26,5.23,5.23,0,0,0-2.13-.51c-1.18-1.3-1.18-2.55-.69-4.32,1-3.71,2.1-7.44,3.16-11.14q1.66-5.79,3.53-11.54c.87-2.69,1.69-5.4,2.67-8.06s1.72-5.2,2.6-7.79a92.32,92.32,0,0,1,3.24-9.31,5.24,5.24,0,0,0,.3-1.64c.18-2.09-.42-4.24.57-6.28a1.79,1.79,0,0,0,0-1.45c-1.05-1.93-.41-4-.54-6a11.7,11.7,0,0,0-.57-3.91c-.46-1.1.08-2.34-.51-3.64s-.25-2.75-.68-4.14-.17-2.72-.71-3.85-.14-2.2-.59-3c-.6-1-.12-2.21-.59-3-.63-1-.2-2.12-.56-3-.83-2.07-.44-4.18-.55-6.28a49.91,49.91,0,0,0,6,1.14,63.24,63.24,0,0,0,8.26,0,31.11,31.11,0,0,0,6-1.27,39.76,39.76,0,0,0,11.39-5.19C174.52,167.9,176.52,166.16,178.61,164.56Z"/><path class="cls-2" d="M136.54,157.45h-9.76c-1.55,1.55-3.83-.34-5.69,1.4a30.12,30.12,0,0,1,.66-3.76,75.83,75.83,0,0,0,1.88-9.3,34.18,34.18,0,0,0,.34-10.12c-.45-4.1-1.6-8.2-4.78-11.29a3.36,3.36,0,0,1-.43-.71c.36-1.15,1.58-.74,1.89-.52,1.47,1,3,.27,4.63.6v-9.56c.2-.25.56-.5.57-.76.05-1.68,0-3.36,0-5a26.16,26.16,0,0,1,.11-4.25c1.06.55,1.94,1,2.86,1.46,4.74,2.15,9.14,5,14.16,6.56a1.78,1.78,0,0,0,2.4-.72c-.91-1.28-1.74-2.65-2.77-3.85s-2.5-2.51-3.62-3.62v-3.55c.87.18,1.59.36,2.31.48a16.52,16.52,0,0,1,5.27,2.3,9,9,0,0,1,3.61,3.49,36.55,36.55,0,0,0,2.92,4c1.46,2.34,2.93,4.68,4.37,7s3,5,4.59,7.54c4.65,7.35,8.26,15.25,12.22,23-.5.63-1.06,1.36-1.62,2.08a4.49,4.49,0,0,1-.6.75c-1.75,1.42-3.44,2.93-5.29,4.21a23.36,23.36,0,0,1-14.09,4.5,14.65,14.65,0,0,1-5-.68c-1.28-.53-2.65,0-3.6-.57-1.25-.77-2.44-.44-3.65-.48S137.93,157,136.54,157.45Z"/><path class="cls-3" d="M125.28,114.19v9.56c-1.64-.33-3.16.42-4.63-.6-.31-.22-1.53-.63-1.89.52a11.41,11.41,0,0,0-2.52-2.32c-2.49-1.72-3.64-4.42-4.63-7.21-.53-1.51-.16-3.11-.63-4.48a14.94,14.94,0,0,1-.45-6.28,62.44,62.44,0,0,0,.53-8.64c1.07-1.8.64-3.79.53-5.67s.73-3.55.67-5.38-.39-3.65.07-5.3c.78-2.8.41-5.57.48-8.36,0-1.82.87-3.5.66-5.37a14.07,14.07,0,0,1,0-5.3c.77-2.61.1-5.22.55-7.76.65-3.66.18-7.37.67-11,.32-2.4.35-4.77.48-7.25a14.85,14.85,0,0,1,5.24-4.17c2.47-1,4.81-1.48,7.12.27a4.68,4.68,0,0,1,1.23,1.05,27.12,27.12,0,0,1,1.28,2.67c-1,1.18-1.76-.11-2.6-.18-2.16,1.71-4.35,3.33-7.63,2.91.26,1.16.52,2.1.67,3.07s.14,1.9.26,2.85c0,.36.29.69.33,1,.22,1.79.26,3.62.65,5.37a39.76,39.76,0,0,1,1,4.85c.19,2,.88,3.94.74,6-.12,1.54.86,2.89.64,4.49a32.7,32.7,0,0,0,0,4.43c0,2.17,0,4.34,0,6.5a30.46,30.46,0,0,0,.47,6.29c.49,2,.11,4.31.11,6.47v1.9c.64-.57,1-.76,1.17-1.07.85-1.69.7-3.63,1.09-5.43a12.94,12.94,0,0,1,3.53-6.55c1.14-1.15,2.48-2,4.07-1.55s3.58,1.07,4.3,2.81c.79,1.93,1.89,3.83,1.84,6a18,18,0,0,0,2.71,4.21,5.85,5.85,0,0,1,1.4,4.12c-.5,2.15-.65,4.49-2.7,6a15.12,15.12,0,0,0-1.71,1.69h-3.81c-.89,0-2,.32-2.63-.06-2-1.14-4.43-1.56-6-3.47a1.5,1.5,0,0,0-1.52-.62l-.78-2.35a52.81,52.81,0,0,0-.3,9.46h1.08v.59c-.45.09-1.14-.29-1.19.59Z"/><path class="cls-4" d="M125.28,114.19V103.52c.45-.08,1.14.3,1.19-.59v-7.7a1.5,1.5,0,0,1,1.52.62c1.53,1.91,4,2.33,6,3.47.67.38,1.74.06,2.63.06h3.81a15.12,15.12,0,0,1,1.71-1.69c2.05-1.49,2.2-3.83,2.7-6a5.85,5.85,0,0,0-1.4-4.12,18,18,0,0,1-2.71-4.21c.16-.07.45-.11.48-.21a11,11,0,0,0,.23-3.85,14.29,14.29,0,0,0-1.33-4.45,8.59,8.59,0,0,0-1.16-1.57,2.81,2.81,0,0,0,1.19-2.59c.18-4.75.07-9.54.69-14.24.46-3.49,0-7,.6-10.4s0-6.62.57-9.83.31-6.16.55-9.23a5.65,5.65,0,0,1,2.33-3.74,17.14,17.14,0,0,1,3.06-1.89,9.81,9.81,0,0,1,2.93-.71,6.57,6.57,0,0,1,4.88,1.63,3.36,3.36,0,0,1,1.48,3.5c-.3,0-.62.17-.85.08a2.52,2.52,0,0,0-2.86.53,8.52,8.52,0,0,1-5.67,1.9c.26,1.66-.64,3.37.54,5,.18.26,0,.76,0,1.15a7.48,7.48,0,0,0,.54,3.34c.47,1-.43,2.33.65,3.28a12.21,12.21,0,0,0,.58,4.49,26.5,26.5,0,0,1,.58,3.3c.11,1-.08,2.06.57,3,.27.41,0,1.16,0,1.75,0,3.85.1,7.7,0,11.54s1.06,7.9.62,11.89c1.18,3.21.34,6.55.59,9.82.19,2.58.47,5.16.57,7.74s0,5.33,0,8v8a36.55,36.55,0,0,1-2.92-4,9,9,0,0,0-3.61-3.49,16.52,16.52,0,0,0-5.27-2.3c-.72-.12-1.44-.3-2.31-.48V104c1.12,1.11,2.46,2.29,3.62,3.62s1.86,2.57,2.77,3.85a1.78,1.78,0,0,1-2.4.72c-5-1.56-9.42-4.41-14.16-6.56-.92-.41-1.8-.91-2.86-1.46a26.16,26.16,0,0,0-.11,4.25c0,1.68,0,3.36,0,5C125.84,113.69,125.48,113.94,125.28,114.19Z"/><path class="cls-3" d="M136.54,157.45c1.39-.43,2.55.58,3.89.62s2.4-.29,3.65.48c.95.58,2.32,0,3.6.57a14.65,14.65,0,0,0,5,.68,23.36,23.36,0,0,0,14.09-4.5c1.85-1.28,3.54-2.79,5.29-4.21a4.49,4.49,0,0,0,.6-.75c-.57,1.89.84,3.34,1.32,5a18.42,18.42,0,0,0,1.64,3.93c-.07.36,0,.85-.23,1.07a39.62,39.62,0,0,1-6.2,5.66,38.92,38.92,0,0,1-9.06,4.51A38.39,38.39,0,0,1,150,172.21c-2.07.1-4.16-.43-6.25-.52-2.42-.1-2.42,0-3.35-2.39,0,0-.19,0-.28,0-.09-2.64-1.3-5-1.92-7.5A36.25,36.25,0,0,0,136.54,157.45Z"/><path class="cls-5" d="M140.1,169.3c.09,0,.27,0,.28,0,.93,2.36.93,2.29,3.35,2.39,2.09.09,4.18.62,6.25.52a38.39,38.39,0,0,0,10.18-1.74,38.92,38.92,0,0,0,9.06-4.51,39.62,39.62,0,0,0,6.2-5.66c.22-.22.16-.71.23-1.07.36.06,1,0,1,.22.58,1.72,1.49,3.33,1.91,5.11-2.09,1.6-4.09,3.34-6.3,4.76a39.76,39.76,0,0,1-11.39,5.19,31.11,31.11,0,0,1-6,1.27,63.24,63.24,0,0,1-8.26,0,49.91,49.91,0,0,1-6-1.14,24.73,24.73,0,0,1-.57-2.69A23.24,23.24,0,0,1,140.1,169.3Z"/><path class="cls-6" d="M138.91,73.3a8.59,8.59,0,0,1,1.16,1.57,14.29,14.29,0,0,1,1.33,4.45,11,11,0,0,1-.23,3.85c0,.1-.32.14-.48.21.05-2.21-1.05-4.11-1.84-6-.72-1.74-2.6-2.37-4.3-2.81s-2.93.4-4.07,1.55A12.94,12.94,0,0,0,127,82.63c-.39,1.8-.24,3.74-1.09,5.43-.16.31-.53.5-1.17,1.07v-1.9c0-2.16.38-4.42-.11-6.47a30.46,30.46,0,0,1-.47-6.29c-.06-2.16,0-4.33,0-6.5l2.79.58c.09-.52.19-1.06.31-1.72a5.94,5.94,0,0,1,2.4.34C135.13,69.82,137,70.93,138.91,73.3Z"/><path class="cls-7" d="M188.68,223.81c1.12,2.21,3.33,2.45,5.37,2.94a10.15,10.15,0,0,0,2.34,0c0,.29-.13.7,0,.87,2.88,3.35,3.13,7.32,2.88,11.9-4.48-4.79-8.18-9.67-12.13-14.62Z"/><path class="cls-7" d="M130.61,273a5.23,5.23,0,0,1,2.13.51,9.37,9.37,0,0,0,5.58,1.26c.42,1.48.85,3,1.33,4.61H129.37c.35-1.57.71-3.13,1-4.71A15.53,15.53,0,0,0,130.61,273Z"/><path class="cls-8" d="M126.47,95.23v7.11h-1.08a52.81,52.81,0,0,1,.3-9.46Z"/><path class="cls-2" d="M126.47,102.93c0,.89-.74.51-1.19.59C125.33,102.64,126,103,126.47,102.93Z"/></svg>