<svg id="Layer_1" data-name="Layer 1" xmlns="http://www.w3.org/2000/svg" viewBox="0 0 300 300"><defs><style>.cls-1{fill:#4c4c4c;}.cls-2{fill:#767676;}.cls-3{fill:#171717;}.cls-4{fill:#545454;}.cls-5{fill:#4e4e4e;}.cls-6{fill:#4b4b4b;}</style></defs><path class="cls-1" d="M104.75,194.93c-.35-.45-.68-.91-1-1.33a2.73,2.73,0,0,1,.42-4.22,16.69,16.69,0,0,1,2.89-1.55,25.8,25.8,0,0,0,4.87-3.21,59.9,59.9,0,0,0,5.35-4.84c2.68-2.56,4.3-5.89,6.38-8.87.32-.46.37-1.39.69-2,.38.47.66,1.14,1.15,1.37a7.73,7.73,0,0,0,2.19.4c.09,0,.22,0,.29,0,1.36,1.06,3.1.09,4.4.72,1.64.8,3.24.22,4.83.45,1.82.27,3.57-.44,5.35-.54a28.79,28.79,0,0,0,7.31-1.56c1.13-.37,2.27-.7,3.23-1,.7-.45-.28-1.52.88-1.64,1.67,2.17,3.31,4.36,5,6.49a17,17,0,0,1,3.25,7.53c.45,2.26,1.13,4.33,3,5.86,1.18,1,2,2.24,3.49,3,.75.39,1.17,1.43,1.84,2.31-2.07,2.06-4.13,4.1-6.17,6.17a4.63,4.63,0,0,1-3.92,1.25c0-.89-.74-.5-1.19-.59h-.59c-2.73,0-5.54-.37-7.89,1.62a3.73,3.73,0,0,1-1.79.63,3.51,3.51,0,0,1-2,0,10.53,10.53,0,0,0-5.93-1,19,19,0,0,0-1.38,1.65c-1.33,1.94-3,2.41-4.95,1.27a17.52,17.52,0,0,1-1.58-1.18c-1.22,0-2.27-1-3.55-.59-1.42.09-2.85-.25-4.22.54a2.32,2.32,0,0,1-1.89-.32,8.39,8.39,0,0,1-2.22-1.75,4.55,4.55,0,0,0-3.55-1.45c-2.07.07-4.14,0-6.21,0a6.46,6.46,0,0,1-3.61-1.26C106.86,196.48,105.81,195.7,104.75,194.93Z"/><path class="cls-2" d="M119.56,135.08c.46-1.69,1.84-2.81,2.8-4.15,1.14-1.6,2.42-3.08,3-5.19-1.77-1.78-3.73-3.68-5.64-5.65q-7.35-7.59-14.65-15.25a21.07,21.07,0,0,1-3-4.69,73.33,73.33,0,0,1-6-14.38c-.7-2.41-1.09-4.9-1.66-7.5a21.53,21.53,0,0,1-2.7-2.21c-2-2.18-2.25-4.3-1-7.22.37-.84.83-1.63,1.33-2.59l1.14.57,2.09-1.46a5.61,5.61,0,0,0,1.16,4.32A2.19,2.19,0,0,1,97,71.19c-.42,2.78,1.22,4.88,2.47,7,1.84,3.08,3.31,6.33,5,9.51,1.55,3,2.94,6.09,4.49,9.09a8,8,0,0,0,2,2.68c1.88,1.44,3.49,3.19,5.52,4.49,1.35.86,2.35,2.2,3.72,3.15a66,66,0,0,1,5.24,4.54c1.77,1.52,3.58,3,5.37,4.49a17.76,17.76,0,0,1-1.41,4.1,13.53,13.53,0,0,0-.46,2.13c1.43-1.63,2.56-2.89,3.63-4.18.14-.18,0-.57,0-.87a9.46,9.46,0,0,1,1.41,0c1,.15,1-.51,1-1.2a14.64,14.64,0,0,0,3.27-1.28,17.55,17.55,0,0,0,2.91-2.87c.23-.25.19-.75.39-1.68-2.44,1.87-4.63,3-7.16,3v1.09c-.51-.2-1-.6-1.52-.56-2.61.26-4.09-1.52-5.4-3.21a6.82,6.82,0,0,1-1.43-4.7c.12-1.63.11-3.2,1.39-4.45a1.28,1.28,0,0,0,.41-1c-.35-1.23.72-2.15.62-3.29h1.06c.47-2.81.66-5.82,3.51-7.7,1.77-.08,3.5-.12,3.82,2.57a2.14,2.14,0,0,0,2.46,1.59,4.13,4.13,0,0,1,2,0c.82.32,1.77.37,2,1.78a11.48,11.48,0,0,1,.43,3.32,2,2,0,0,0,1,2,13.06,13.06,0,0,0,2.06.93c0,1.43-1.37,2.94,0,4.45,0,0-.11.33-.21.48-.67,1-1,2.27-2.46,2.5-.55.09-1,.62-1.56,1l.69,1.34a4.6,4.6,0,0,0-.47.19,35.23,35.23,0,0,1,1,4.11c.16,1.22.7,1.59,1.82,1.65a7.52,7.52,0,0,1,1.78.57,53.35,53.35,0,0,1-10.7,20.59,102.43,102.43,0,0,1-13-2.45,46.43,46.43,0,0,1,2.26-8,3.77,3.77,0,0,0-1,1.2,23.78,23.78,0,0,1-4.05,5.4C120.55,134.93,120,134.94,119.56,135.08Zm9-12.1c-.45.4-.67.52-.66.6a5.05,5.05,0,0,0,.25.84c.11-.36.21-.72-.27.26v-.26a1.5,1.5,0,0,0-.45.17s.06.24.1.36C127.62,124.86,127.74,124.77,128.54,123Zm-1.36,3-.21-.38c-.07.07-.2.15-.19.2a2.33,2.33,0,0,0,.19.39Zm-1,1.19.21.21a2,2,0,0,0,.18-.4s-.12-.13-.18-.19Z"/><path class="cls-2" d="M133.19,202a17.52,17.52,0,0,0,1.58,1.18c1.95,1.14,3.62.67,4.95-1.27a19,19,0,0,1,1.38-1.65,10.53,10.53,0,0,1,5.93,1,3.51,3.51,0,0,0,2,0,3.73,3.73,0,0,0,1.79-.63c2.35-2,5.16-1.6,7.89-1.62-2.76,4-5.5,8-8.3,11.95-1.79,2.53-3.71,5-5.5,7.5-1.17,1.67-2.22,3.42-3.34,5.17,2.51,1.65,5.05,3.34,7.61,5,2.22,1.44,4.27,3.09,6.36,4.71,1.79,1.39,3.17,3.31,5.31,4.27.17.07.28.27.43.4,2.57,2.38,5.15,4.73,7.7,7.13a32,32,0,0,0,2.22,2.42,19.09,19.09,0,0,0,2.91,1.52,3.37,3.37,0,0,1,.64.52c-1.39,3.69-3.65,7.78-5.44,9.6a19.14,19.14,0,0,0,.4-2.17,36.54,36.54,0,0,0,.05-4.56c-.07-1-1.09-1.44-1.82-1.82-7.9-4-15.85-8-23.77-11.95q-6.36-3.21-12.69-6.52c-2.35-1.23-4.64-2.58-7.14-4-.09-1.58.71-3.18,1.14-4.87.87-3.38,2.07-6.65,3.21-9.93a86.41,86.41,0,0,1,4.18-9.52A5.6,5.6,0,0,0,133.19,202Z"/><path class="cls-2" d="M104.75,194.93c1.06.77,2.11,1.55,3.19,2.29a6.46,6.46,0,0,0,3.61,1.26c2.07,0,4.14.06,6.21,0a4.55,4.55,0,0,1,3.55,1.45,8.39,8.39,0,0,0,2.22,1.75,2.32,2.32,0,0,0,1.89.32c1.37-.79,2.8-.45,4.22-.54-.21.31-.35.74-.64.9-1.68,1-3.43,1.76-5.07,2.75-3.48,2.09-7,4.06-10.45,6.23-2.4,1.51-5,2.69-7.64,4.09.15.48.16,1.14.5,1.5,2,2.14,3.27,4.74,4.79,7.2,2.42,3.9,4,8.21,6,12.31a74.31,74.31,0,0,1,4.84,12.2,10,10,0,0,0,1.3,2.42c.49.78,1.08,1.5,1.79,2.47l-8.7,6.1-.38-.31c.22-.43.33-1,.67-1.28a6.51,6.51,0,0,0,2.34-5.64c-10.73-13-20.63-26.53-30.81-40.07.76-.92,1.61-1.88,2.38-2.91a76.48,76.48,0,0,1,8-8.52c1.8-1.75,3.74-3.35,5.59-5A4.63,4.63,0,0,0,104.75,194.93Z"/><path class="cls-3" d="M143.26,111.38l-.69-1.34c.53-.35,1-.88,1.56-1,1.51-.23,1.79-1.53,2.46-2.5.1-.15.26-.43.21-.48-1.33-1.51,0-3,0-4.45a13.06,13.06,0,0,1-2.06-.93,2,2,0,0,1-1-2,11.48,11.48,0,0,0-.43-3.32c-.28-1.41-1.23-1.46-2-1.78a4.13,4.13,0,0,0-2,0A2.14,2.14,0,0,1,136.84,92c-.32-2.69-2.05-2.65-3.82-2.57-2.85,1.88-3,4.89-3.51,7.7h-1.06a4.7,4.7,0,0,1-1.21-3.66c.23-2.11.14-2.11-.68-3.61.88-.73,1.69-1.55,2.69-2.31,1.37-1,2.89-2.11,3.45-4.14a3.37,3.37,0,0,1,3.59-2.27,5.22,5.22,0,0,0,4.32-1.77c.92-.94,1.44-.87,2.42,0,.65.61,1.24,1.29,1.9,1.88.84.75,1.74,1.45,2.73,2.27a20.6,20.6,0,0,1,1.22-2.4c1-1.43,1.69-1.52,3.44-.78.76.32,1.66.82,2.34.64s1.85-.15,1.7-1.44c1.17-.5,2.19-1.44,3.65-.44a7.84,7.84,0,0,0,5.93,1.37,3.12,3.12,0,0,1,3.49,1.79c-.18.24-.57.52-.58.82-.06,1.57,0,3.14,0,4.87l2.7,2.49a3.73,3.73,0,0,1-1,3.93,4.87,4.87,0,0,0-1,5.35c.79,1.82,0,2.76-.94,3.69a12.42,12.42,0,0,0-3.58,6,2.71,2.71,0,0,1-2.65,2c-3,.23-5.28-1-7.6-3a13.07,13.07,0,0,0-1.37,2.21,3.46,3.46,0,0,1-2.16,2c-1.73.69-1.94.74-3.26-.45-.35-.31-.75-.56-1.13-.84,0-.89-.74-.5-1.18-.59H145l-.59.59Zm14.17-7.11c.61,0,.76,0,.79,0,.75-1.13,1.94-2.2,2.13-3.42a16.07,16.07,0,0,0-.08-6.41,15.26,15.26,0,0,0-5.77-8.74c-.53-.38-1.28-1.56-2.48-.62a27.14,27.14,0,0,0,2.08,4.18,33.54,33.54,0,0,0,3.55,3.63,2.69,2.69,0,0,0-.17,3.62,3.92,3.92,0,0,1,.49,3.82C157.32,101.7,157.7,102.89,157.43,104.27Z"/><path class="cls-1" d="M119.56,135.08c.44-.14,1-.15,1.29-.43a23.78,23.78,0,0,0,4.05-5.4,3.77,3.77,0,0,1,1-1.2,46.43,46.43,0,0,0-2.26,8,102.43,102.43,0,0,0,13,2.45,53.35,53.35,0,0,0,10.7-20.59h1.19c.58.22,1.5-.55,1.78.59-1.32,2-2.65,4-3.94,6-2.57,4-4.46,8.28-4.4,13.14,1.56,1.58,1.56,1.58,3.47,1.59h2.65c.94,0,1.88.07,2.81.1v1.08c-.11,1.41.15,2.79-.53,4.21-.54,1.13.34,2.62-.6,3.88-.33.45,0,1.34-.07,2a3.5,3.5,0,0,1-.37,1.91,2,2,0,0,0,.44,2.6c1,1.08,1.91,2.34,2.93,3.63-.09,1.38-1.6,1.22-2.39,1.89-1.46.6-3,.82-4.48,1.33-4.32,1.54-8.83,1.61-13.27,2.19-2.58.33-5.11-1-7.73-.56-.59-.32-1.71-.33-.67-1.49.3-.33.07-1.13.07-1.72,0-2.16-.17-4.34,0-6.47.28-2.83-.74-5.52-.65-8.15a43.61,43.61,0,0,1-3.62-4.54C118.94,139.29,118.29,137.22,119.56,135.08Z"/><path class="cls-2" d="M151,140.41v-1.08c-.93,0-1.87-.08-2.81-.1h-2.65c-1.91,0-1.91,0-3.47-1.59-.06-4.86,1.83-9.12,4.4-13.14,1.29-2,2.62-4,3.94-6,2.9,0,5.07,1.64,7.19,3.35a18,18,0,0,1,4.57,6.4c1.6,3.26,3.87,6.07,5.56,9.31,2.52-6.12,5-12.09,7.48-18.21-2.12-.67-3-2.71-3.92-4.6a29.56,29.56,0,0,1-1.28-3.6l3-1.47c1.53.68,3.36,1,4.71,2.55a6.27,6.27,0,0,1,1.45,6.27,3.74,3.74,0,0,0-.27,1.36c.39,2.83-.28,5.61-.71,8.33a55.17,55.17,0,0,1-3.73,14.12c-.65,1.44-1.58,2.89-1.6,4.7a4.19,4.19,0,0,1-1.67,2.49,3.72,3.72,0,0,1-2.52.91,4.75,4.75,0,0,1-2.66-1.3,45.54,45.54,0,0,1-3.71-4.37c-.86-1.1-1.55-2.33-2.41-3.43-2.22-2.84-4.49-5.64-6.84-8.57-.27.4-.74.8-.8,1.25-.28,2-.42,4-.65,6C151.52,140.12,151.17,140.26,151,140.41Z"/><path class="cls-2" d="M124.9,163.52c2.62-.41,5.15.89,7.73.56,4.44-.58,9-.65,13.27-2.19,1.43-.51,3-.73,4.48-1.33,0,.3-.12.77,0,.86,1.26.87,1.39,2.43,2.27,3.53a17.35,17.35,0,0,1,1.27,2.13c-1.16.12-.18,1.19-.88,1.64-1,.29-2.1.62-3.23,1a28.79,28.79,0,0,1-7.31,1.56c-1.78.1-3.53.81-5.35.54-1.59-.23-3.19.35-4.83-.45-1.3-.63-3,.34-4.4-.72-.07,0-.2,0-.29,0a7.73,7.73,0,0,1-2.19-.4c-.49-.23-.77-.9-1.15-1.37a8.41,8.41,0,0,0,.57-1.81C125,165.88,124.9,164.7,124.9,163.52Z"/><path class="cls-4" d="M134.38,114.34v-1.09c2.53,0,4.72-1.09,7.16-3-.2.93-.16,1.43-.39,1.68a17.55,17.55,0,0,1-2.91,2.87,14.64,14.64,0,0,1-3.27,1.28l-.59-.59Z"/><path class="cls-5" d="M132.6,117.3c0,.3.12.69,0,.87-1.07,1.29-2.2,2.55-3.63,4.18a13.53,13.53,0,0,1,.46-2.13,17.76,17.76,0,0,0,1.41-4.1A1.46,1.46,0,0,1,132.6,117.3Z"/><path class="cls-2" d="M145.64,110.79c.44.09,1.13-.3,1.18.59C146.37,111.29,145.69,111.67,145.64,110.79Z"/><path class="cls-2" d="M148.6,117.9h-1.19l.74-.6Z"/><path class="cls-2" d="M159.26,199.08c.45.09,1.14-.3,1.19.59C160,199.58,159.31,200,159.26,199.08Z"/><path class="cls-2" d="M134.38,115.53l.59.59Z"/><path class="cls-2" d="M144.45,111.38l.59-.59Z"/><path class="cls-1" d="M128.54,123l-.41,1.44a5.05,5.05,0,0,1-.25-.84C127.87,123.5,128.09,123.38,128.54,123Z"/><path class="cls-1" d="M127.86,124.68l-.35.27c0-.12-.14-.33-.1-.36a1.5,1.5,0,0,1,.45-.17Z"/><path class="cls-1" d="M127.18,126l-.21.21a2.33,2.33,0,0,1-.19-.39s.12-.13.19-.2Z"/><path class="cls-1" d="M126.17,127.17l.21-.38c.06.06.19.14.18.19a2,2,0,0,1-.18.4Z"/><path class="cls-6" d="M157.43,104.27c.27-1.38-.11-2.57.54-4a3.92,3.92,0,0,0-.49-3.82,2.69,2.69,0,0,1,.17-3.62,33.54,33.54,0,0,1-3.55-3.63A27.14,27.14,0,0,1,152,85.07c1.2-.94,1.95.24,2.48.62a15.26,15.26,0,0,1,5.77,8.74,16.07,16.07,0,0,1,.08,6.41c-.19,1.22-1.38,2.29-2.13,3.42C158.19,104.31,158,104.27,157.43,104.27Z"/></svg>