<svg id="Layer_1" data-name="Layer 1" xmlns="http://www.w3.org/2000/svg" viewBox="0 0 300 300"><defs><style>.cls-1{fill:#4f4f4f;}.cls-2{fill:#7f7f7f;}.cls-3{fill:#767676;}.cls-4{fill:#171717;}.cls-5{fill:#5f5f5f;}.cls-6{fill:#535353;}.cls-7{fill:#181818;}.cls-8{fill:#1f1f1f;}</style></defs><path class="cls-1" d="M175.21,142.18c.7,2.37,1.52,4.72,2.06,7.13s1.59,4.61,1.49,7.09c0,1.15.85,2.07.65,3.31-.16,1-.38,2.14.53,3,.1.1,0,.38,0,.58.2,4,.36,7.93.61,11.9.11,1.89.46,3.78.55,5.67s-.37,4.06.12,5.9c.74,2.81.38,5.58.47,8.37,0,1.34.92,2.49.65,3.9s.65,2.48,1,3.72a46.56,46.56,0,0,0,2.55,8.43c-.33,2.43,1.17,4.53,1.22,6.91a18.52,18.52,0,0,0,.56,3c.21,1.1.45,2.2.58,3.31s-.2,2.13.6,3c0,.05,0,.19,0,.29.2,3.07.62,6.16.52,9.23-.08,2.64.59,5.15.71,7.75.15,3.5-1.07,6.9-.65,10.41.1.81-.48,1.2-1.17,1.41-2.21.84-4.51.6-6.79.57a4.91,4.91,0,0,1-1.51-.57h-1c-.27-1.84-.47-3.71-.82-5.55a29.52,29.52,0,0,0-1-4.63,2.23,2.23,0,0,1-.19-.8c0-3.61-1.27-7-1.89-10.5a66.61,66.61,0,0,0-1.65-7c-.8-2.74-1.48-5.52-2.11-8.31-.75-3.32-2-6.5-2.68-9.84-.23-1.16-.88-2.22-1.14-3.37-1-4.4-2.64-8.61-3.7-13-.62-2.54-1.45-5.1-2.29-7.62a45.32,45.32,0,0,1-1.17-4.55c-.32-1.43-1-2.74-1.23-4.24a30.59,30.59,0,0,0-1.72-5.49c-.72-2-.71-4.18-1.76-6.07.46-1.34-.93-1.37-1.6-2.26a65.75,65.75,0,0,1-1.47,7.75c-1.08,4.67-1.7,9.46-3.37,14,.13,2.39-1,4.54-1.32,6.87s-1.05,4.31-1.4,6.51a14.49,14.49,0,0,0-.31,1.94c0,3.15-.18,6.32,0,9.47.28,4.2-.55,8.32-.75,12.48-.08,1.56-.46,3.17-.48,4.79-1.43,1.13.26,3.12-1.19,4.25.43,2.63-1.08,4.94-1.21,7.5a9,9,0,0,1-.59,3c-1.05,2.56-1.58,5.26-2.41,7.88-.52,1.65-1.17,3.27-1.68,4.93-.27.89-.8,1.22-1.81,1.39v2.84c-.2-.15-.55-.29-.56-.46-.06-.83,0-1.67,0-2.69-2.54.65-4.5-.32-6.39-1.25a5.51,5.51,0,0,0-1.91-.34c.2-1.4.39-2.8.6-4.19s-.51-2.74.58-3.91c.05,0,0-.19,0-.29-.28-2.61.52-5.16.55-7.74,0-4,1.06-7.89.63-11.89,1.17-3.41.53-6.94.56-10.4.09-10.56,0-21.11.08-31.66,0-3.07.79-6.13.55-9.23.88-1.3.38-2.8.64-4.18s.33-2.84.62-4.19c.57-2.63.9-5.3,1.48-7.93a65.2,65.2,0,0,0,1.44-6.83c.14-1.27.68-2.48,1-3.74.43-2,1.41-3.84,1.41-5.94,0-.15.37-.31.57-.47,1,.28,2,.49,2.9.85A55.44,55.44,0,0,0,153,145.1a49.33,49.33,0,0,0,5,.05,37.32,37.32,0,0,0,11.91-1.23c1.6-.46,3.51-.19,4.72-1.74Z"/><path class="cls-2" d="M175.21,142.18h-.59V141c-1.18,0-2.38-.36-3.08.08-1.42.87-2.84.3-4.24.51s-2.79.44-4.19.58a12.45,12.45,0,0,1-2.66,0c-.81-.09-1.6-.47-2.42-.54a13.45,13.45,0,0,0-3.53,0c-1.34.23-2.38-.69-3.61-.62a15.92,15.92,0,0,1-3.31-.57,70.42,70.42,0,0,1-8.89-2.21l-.81,1c-.42-1.54-.42-1.54-2.4-2,.24-1.16-.32-2.34.46-3.56.65-1-.09-2.36.57-3.6s.46-2.74.8-4.09c.4-1.6.32-3.31,1.12-4.84.41-.79-.27-1.42-.55-2.09l1.09-.2c-.71-.83.29-1.55.13-2.4-.22-1.16.58-2,1-3.06s.19-2.44.28-3.68c0-.15.37-.27.38-.42.06-.93.82-1.64.68-2.67-.07-.56.35-1.19.55-1.79a11.41,11.41,0,0,1,.33-2.52,19.07,19.07,0,0,0,1.38-5.61c.19-2.26,1-4.34,1.52-6.49.62-2.75,1.34-5.52,2.13-8.25.67-2.3,1.13-4.77,3.34-6.28l1.84-1.25L152.1,74c.73-1,2.08-.79,3-1.47a17,17,0,0,1,3.17-1.49c.49-.21,1-.4,1.5-.59a23.47,23.47,0,0,1,.62,5.67c-.06.87.53,1.38,1.43,1.44a41.42,41.42,0,0,0,5.73-1.18c2-.81,3.59-2.29,5.39-3.42.6-.38.64-.86.1-1.44-.21-.23-.16-.71-.23-1.07,4,1.19,7.42,3.63,10.8,6,2.38,1.66,4.93,3.3,6.3,6.08.89,1.82,2,3.55,1.9,5.73a24.86,24.86,0,0,0,.53,3,19.59,19.59,0,0,1,0,3.25c-.14,1.79-.46,3.57-.56,5.37s.31,3.62-.11,5.29a26.19,26.19,0,0,0-.52,4.79c-.08,1-.44,2-.56,3s-.06,1.94-.12,2.91c0,.08-.32.14-.49.21l-.21-1.11-.4,0v3.1c-1.08-.81-1.83-1.79-2.69-1.91-1.2-.17-2.26-.28-2.94-1.37-2.09,1.11-4.15.61-6.2.6v-1.7c-.41-3.7.91-7.31.59-11,0-.09,0-.23,0-.29.94-1.19.45-2.59.59-3.9s.47-2.8.57-4.2c.12-1.81-.2-3.65.59-5.39.07-.16-.14-.45-.37-1.08-.51,1.21-.88,2-1.21,2.89-1.7,4.35-3.12,8.76-3.14,13.51,0,3,0,5.92,0,8.88-.15.79.32,1.7-.49,2.61a6.17,6.17,0,0,0-1.16-1,3.35,3.35,0,0,0-1.58-.43,8.81,8.81,0,0,1-3.46-.49,5.88,5.88,0,0,0-3-.76c-1.53.2-2.87-.65-4.28-1s-.54-1.44-1.16-2-1.55-1.07-1.57-2.31c0-.95-1.47-1.46-1.23-2.75.05-.26-.61-.64-1.08-1.11l-2,2c-1.43-1.28-2.5-.18-3.33.49a2,2,0,0,0-.85,2.62,5.16,5.16,0,0,1,0,3.32c-.16.61-.33.9.11,1.47.78,1,1.34,2.22,2.15,3.22.28.35,1.09.21,1.55.47a37.85,37.85,0,0,1,3.35,2c1,.71,1.35,2,2.46,2.45s2.44.65,2.89,1.42c.75,1.29,2.08,1,2.86,1.66,2.4,2,5.19,2.74,8.06,3.47a5.45,5.45,0,0,1,1.55,1c.52-1,.89.08,1.32.13a10.18,10.18,0,0,1,1.83.57c-.19,1-.4,2-.59,3s.39,1.92-.56,2.71c-.2.15,0,.74,0,1.13,0,1.38,0,2.7-1.56,3.44C175.16,140.69,175.27,141.62,175.21,142.18Z"/><path class="cls-3" d="M178.17,130.33a10.18,10.18,0,0,0-1.83-.57c-.43,0-.8-1.1-1.32-.13a5.45,5.45,0,0,0-1.55-1c-2.87-.73-5.66-1.51-8.06-3.47-.78-.64-2.11-.37-2.86-1.66-.45-.77-1.89-1-2.89-1.42s-1.45-1.74-2.46-2.45a37.85,37.85,0,0,0-3.35-2c-.46-.26-1.27-.12-1.55-.47-.81-1-1.37-2.2-2.15-3.22-.44-.57-.27-.86-.11-1.47a5.16,5.16,0,0,0,0-3.32,2,2,0,0,1,.85-2.62c.83-.67,1.9-1.77,3.33-.49l2-2c.47.47,1.13.85,1.08,1.11-.24,1.29,1.22,1.8,1.23,2.75,0,1.24.89,1.72,1.57,2.31s-.29,1.61,1.16,2,2.75,1.2,4.28,1a5.88,5.88,0,0,1,3,.76,8.81,8.81,0,0,0,3.46.49,3.35,3.35,0,0,1,1.58.43,6.17,6.17,0,0,1,1.16,1c.81-.91.34-1.82.49-2.61,1.37.39,0,1.81,1,2.46.2-.15.57-.29.7-.55.23-.42-.35-1.22.62-1.32v1.7c2,0,4.11.51,6.2-.6.68,1.09,1.74,1.2,2.94,1.37.86.12,1.61,1.1,2.69,1.91V115l.4,0,.21,1.11c.41,2.61-.68,5.11-.59,7.7-1.11,1.58-1.11,3.68-2.46,5.16a7.09,7.09,0,0,0-.77,1.37Z"/><path class="cls-3" d="M142,104.85c-.2.6-.62,1.23-.55,1.79.14,1-.62,1.74-.68,2.67,0,.15-.37.27-.38.42-.09,1.24.19,2.63-.28,3.68s-1.26,1.9-1,3.06c.16.85-.84,1.57-.13,2.4l-1.09.2c-2.08.41-3.86-.75-5.66-1.34a32.29,32.29,0,0,1-9.4-5.14,25.34,25.34,0,0,1-3.28-2.74c-.94-1-2.07-1.75-3-2.8a21.45,21.45,0,0,0-5.3-4.92,9.64,9.64,0,0,1-2.71-2.69,5.43,5.43,0,0,1-.86-2.29c-.47-2.52.49-4.85,1.22-7.17a1.26,1.26,0,0,1,1.85-.74,17,17,0,0,0,2.41.8L114.67,88c.52.54,1.24.93,1.23,1.3a5.75,5.75,0,0,0,1.55,4.43,3,3,0,0,1,.26,1.93,2,2,0,0,0,1.61,2.29c2.41.81,4.7,2,7.13,2.73a39,39,0,0,1,4.58,1.83,6.71,6.71,0,0,0,3.29.61c.15.2.3.56.45.56,2.11,0,4.26-.22,6.13,1.19C141.14,105,141.64,104.85,142,104.85Z"/><path class="cls-4" d="M152.69,48.55a5.47,5.47,0,0,1-1-1.35c-.22-.66-1.06-1.34-.17-2.11V38.66a15.91,15.91,0,0,0,1.94-1.38,11.33,11.33,0,0,0,2.86-3.17c.82-1.69,1.58-1.76,3.57-1.2a6.38,6.38,0,0,0,1.69.23c2.27,0,4.54,0,6.83,0l2.87,2.92c1.72.17,3.52-.36,5.09.88a6.44,6.44,0,0,0,1.86,4.77c1.2,1.42,1.43,2.75.42,4.28a2.2,2.2,0,0,0,.07,2.85A8.31,8.31,0,0,1,179.5,51c-1.4,1.62-3.53,2.87-3.07,5.56-1.07.56-1.39,2.2-3,2,.25-1.29.51-2.57.76-3.85-.76-.57-1.3-1.26-2-1.43-1.16-.29,0-1.53-.74-1.73-.46.2-.95.56-1.1.45-.92-.65-2.27-.68-2.36-2.44a3,3,0,0,0-3-2.8,6,6,0,0,1-4.88-2.43c-2.05,1.45-4,3-6.68,2.33A3.12,3.12,0,0,1,152.69,48.55Z"/><path class="cls-3" d="M152.69,48.55a3.12,3.12,0,0,0,.75-1.82c2.68.68,4.63-.88,6.68-2.33A6,6,0,0,0,165,46.83a3,3,0,0,1,3,2.8c.09,1.76,1.44,1.79,2.36,2.44.15.11.64-.25,1.1-.45.74.2-.42,1.44.74,1.73.68.17,1.22.86,2,1.43-.25,1.28-.51,2.56-.76,3.85-1.71.62-1.93,2-1.78,3.55-1.36-.38,0-1.8-.89-2.36-.28.28-.67.5-.81.83a12,12,0,0,1-8.46,6.9,6,6,0,0,0-1.69,1.15c-1.16-.73-2.41-1.36-3.6-2-1.42-.72-1.9-2-2.76-3a8.61,8.61,0,0,1-1.3-3.25c-.11-.37.2-.87.33-1.31a11.54,11.54,0,0,0,.84-4.66c-.13-1.36,0-2.75-.05-4.11A7.82,7.82,0,0,0,152.69,48.55Z"/><path class="cls-5" d="M142,104.85c-.39,0-.89.15-1.13,0-1.87-1.41-4-1.15-6.13-1.19-.15,0-.3-.36-.45-.56-.22-1.85.78-3.44,1.32-5.06A86,86,0,0,1,142,83c2.25-4,5.17-7.23,9.52-9a1.6,1.6,0,0,1,.58,0l.47.42-1.84,1.25c-2.21,1.51-2.67,4-3.34,6.28-.79,2.73-1.51,5.5-2.13,8.25-.48,2.15-1.33,4.23-1.52,6.49a19.07,19.07,0,0,1-1.38,5.61A11.41,11.41,0,0,0,142,104.85Z"/><path class="cls-6" d="M159.8,68.7a6,6,0,0,1,1.69-1.15,12,12,0,0,0,8.46-6.9c.14-.33.53-.55.81-.83.9.56-.47,2,.89,2.36a9.71,9.71,0,0,0,.07,2.91,10,10,0,0,1,.56,2.7,16.09,16.09,0,0,0,.56,2.69c.07.36,0,.84.23,1.07.54.58.5,1.06-.1,1.44-1.8,1.13-3.38,2.61-5.39,3.42a41.42,41.42,0,0,1-5.73,1.18c-.9-.06-1.49-.57-1.43-1.44a23.47,23.47,0,0,0-.62-5.67Z"/><path class="cls-7" d="M137.88,139.21l.81-1a70.42,70.42,0,0,0,8.89,2.21,15.92,15.92,0,0,0,3.31.57c1.23-.07,2.27.85,3.61.62a13.45,13.45,0,0,1,3.53,0c.82.07,1.61.45,2.42.54a12.45,12.45,0,0,0,2.66,0c1.4-.14,2.8-.37,4.19-.58s2.82.36,4.24-.51c.7-.44,1.9-.08,3.08-.08v1.19c-1.21,1.55-3.12,1.28-4.72,1.74A37.32,37.32,0,0,1,158,145.15a49.33,49.33,0,0,1-5-.05,55.44,55.44,0,0,1-12.19-2.67c-.94-.36-1.93-.57-2.9-.85Z"/><path class="cls-4" d="M127.21,254.17a5.51,5.51,0,0,1,1.91.34c1.89.93,3.85,1.9,6.39,1.25,0,1,0,1.86,0,2.69,0,.17.36.31.56.46-.25.2-.51.57-.76.57-6,0-12,0-18.15,0,.49-1.55,1.92-1.91,2.91-2.54s1.9-1.69,3.39-1.83C124.72,255,125.85,254.07,127.21,254.17Z"/><path class="cls-8" d="M180,256.54a4.91,4.91,0,0,0,1.51.57c2.28,0,4.58.27,6.79-.57.16.82-.12,1.62.33,2.5.69,1.32,0,2.21-1.43,2.23-2.72,0-5.44,0-8.46,0,.24-1.08.45-2,.67-3,.88-.05.5-.74.59-1.19Z"/><path class="cls-1" d="M180,257.13c-.09.45.29,1.14-.59,1.19C179.45,257.87,179.06,257.18,180,257.13Z"/><path class="cls-5" d="M177.58,113.73c-1,.1-.39.9-.62,1.32-.13.26-.5.4-.7.55-1.06-.65.32-2.07-1-2.46,0-3,0-5.92,0-8.88,0-4.75,1.44-9.16,3.14-13.51.33-.85.7-1.68,1.21-2.89.23.63.44.92.37,1.08-.79,1.74-.47,3.58-.59,5.39-.1,1.4-.41,2.79-.57,4.2s.35,2.71-.59,3.9c-.05.06,0,.2,0,.29C178.49,106.42,177.17,110,177.58,113.73Z"/></svg>