<svg width="196" height="196" viewBox="0 0 196 196" fill="none" xmlns="http://www.w3.org/2000/svg">
<path d="M194.685 72.5252L163.326 48.7122V29.407C163.319 26.8104 162.284 24.3224 160.448 22.4863C158.612 20.6502 156.123 19.6152 153.527 19.6075H124.945L99.9558 0.661589C99.3925 0.232425 98.704 0 97.9959 0C97.2877 0 96.5992 0.232425 96.0359 0.661589L71.047 19.6075H42.4649C39.8682 19.6152 37.3802 20.6502 35.5441 22.4863C33.708 24.3224 32.673 26.8104 32.6653 29.407V48.7122L1.30661 72.5252C0.903514 72.8319 0.576121 73.2269 0.349606 73.68C0.123092 74.133 0.00349055 74.632 0 75.1384V192.733C0 193.6 0.344151 194.431 0.956744 195.043C1.56934 195.656 2.40019 196 3.26653 196H192.725C193.592 196 194.422 195.656 195.035 195.043C195.648 194.431 195.992 193.6 195.992 192.733V75.1384C195.988 74.632 195.869 74.133 195.642 73.68C195.416 73.2269 195.088 72.8319 194.685 72.5252ZM163.326 56.9112L187.335 75.1384L163.326 93.333V56.9112ZM97.9959 7.35797L114.133 19.6075H81.8592L97.9959 7.35797ZM39.1983 29.407C39.1983 28.5407 39.5425 27.7099 40.1551 27.0973C40.7677 26.4847 41.5985 26.1405 42.4649 26.1405H153.527C154.393 26.1405 155.224 26.4847 155.837 27.0973C156.449 27.7099 156.793 28.5407 156.793 29.407V98.2981L115.21 129.82L99.9558 118.257C99.3925 117.827 98.704 117.595 97.9959 117.595C97.2877 117.595 96.5992 117.827 96.0359 118.257L80.7812 129.82L39.1983 98.2981V29.407ZM32.6653 56.9112V93.333L8.6563 75.1384L32.6653 56.9112ZM6.53306 81.7042L75.3588 133.936L6.53306 186.168V81.7042ZM12.9681 189.467L97.9959 124.986L183.024 189.467H12.9681ZM189.459 186.168L120.633 133.936L189.459 81.7042V186.168Z" fill="white"/>
<path d="M55.531 176.401H42.4648V182.934H55.531V176.401Z" fill="white"/>
<path d="M133.928 176.401H62.064V182.934H133.928V176.401Z" fill="white"/>
<path d="M153.527 176.401H140.461V182.934H153.527V176.401Z" fill="white"/>
<path d="M58.7975 42.4729H52.2644V49.006H58.7975V42.4729Z" fill="white"/>
<path d="M97.9959 42.4729H65.3306V49.006H97.9959V42.4729Z" fill="white"/>
<path d="M97.9958 62.072H52.2644V68.6051H97.9958V62.072Z" fill="white"/>
<path d="M143.727 81.6711H52.2644V88.2042H143.727V81.6711Z" fill="white"/>
<path d="M143.727 101.27H52.2644V107.803H143.727V101.27Z" fill="white"/>
<path d="M114.329 71.8716H140.461C141.327 71.8716 142.158 71.5274 142.771 70.9148C143.383 70.3022 143.727 69.4714 143.727 68.6051V42.4728C143.727 41.6065 143.383 40.7756 142.771 40.163C142.158 39.5505 141.327 39.2063 140.461 39.2063H114.329C113.462 39.2063 112.631 39.5505 112.019 40.163C111.406 40.7756 111.062 41.6065 111.062 42.4728V68.6051C111.062 69.4714 111.406 70.3022 112.019 70.9148C112.631 71.5274 113.462 71.8716 114.329 71.8716ZM117.595 45.7394H137.194V65.3385H117.595V45.7394Z" fill="white"/>
</svg>
