<svg width="75" height="75" viewBox="0 0 75 75" fill="none" xmlns="http://www.w3.org/2000/svg">
<path d="M10.4069 74.9995C11.5834 75.0082 12.7486 74.7703 13.8275 74.3011C14.9064 73.8318 15.875 73.1416 16.671 72.275L31.9054 55.4348C36.8873 57.9621 42.6067 58.6295 48.0363 57.3172C53.4659 56.0049 58.2499 52.7988 61.529 48.2748C64.8081 43.7509 66.3674 38.2055 65.9268 32.6347C65.4863 27.0639 63.0748 21.8328 59.1254 17.8809C55.1761 13.9291 49.9477 11.5155 44.3794 11.0736C38.8111 10.6317 33.2677 12.1905 28.745 15.4701C24.2223 18.7496 21.0166 23.535 19.7037 28.9666C18.3908 34.3983 19.0568 40.1202 21.582 45.1048L4.73618 60.3308C3.89955 61.1083 3.22675 62.0454 2.75732 63.0868C2.2879 64.1282 2.03133 65.253 2.00269 66.3951C1.97406 67.5372 2.17394 68.6734 2.59059 69.7371C3.00723 70.8007 3.63223 71.7703 4.42884 72.5889C5.21725 73.3651 6.1513 73.9777 7.17726 74.3914C8.20322 74.8051 9.30083 75.0118 10.4069 74.9995ZM28.9303 20.9068C32.5855 17.4035 37.4519 15.4477 42.5138 15.4477C47.5758 15.4477 52.4422 17.4035 56.0974 20.9068C58.7834 23.5944 60.6125 27.0185 61.3534 30.7461C62.0943 34.4736 61.7137 38.3373 60.2598 41.8485C58.8058 45.3597 56.3438 48.3607 53.1851 50.4721C50.0264 52.5835 46.3127 53.7105 42.5138 53.7105C38.7149 53.7105 35.0013 52.5835 31.8425 50.4721C28.6838 48.3607 26.2218 45.3597 24.7679 41.8485C23.3139 38.3373 22.9333 34.4736 23.6742 30.7461C24.4151 27.0185 26.2442 23.5944 28.9303 20.9068ZM25.9124 51.1025C26.645 51.8248 27.4243 52.4981 28.2452 53.1181L25.4172 56.2441L20.7709 51.5936L23.8976 48.7666C24.5168 49.589 25.1899 50.3694 25.9124 51.1025Z" fill="#2F4550"/>
<path fill-rule="evenodd" clip-rule="evenodd" d="M1.44844 44.611C0.39084 37.107 1.34591 29.3062 5.13135 22.7398C8.8345 16.3161 11.6325 8.81179 18.1866 5.34147C24.9555 1.75749 35.1484 -0.0132058 42.6868 1.3418C50.2119 2.69444 62.8028 6.89479 68 12.5C70.9286 15.6585 71.5515 27.1054 73.0132 34.4232C74.5237 41.9852 73.0262 49.9441 69.2685 56.6793C65.5637 63.3196 59.3511 68.0516 52.458 71.2658C45.6708 74.4305 38.5814 72.4496 31.1868 71.2661C23.716 70.0704 16.3253 70.0437 11.0361 64.6363C5.73078 59.2124 2.50714 52.1229 1.44844 44.611Z" stroke="#2F4550" stroke-width="1.5"/>
</svg>
