<svg width="72" height="73" viewBox="0 0 72 73" fill="none" xmlns="http://www.w3.org/2000/svg">
<path d="M15.191 36.2175C19.9454 36.2175 23.7997 32.3632 23.7997 27.6088C23.7997 22.8543 19.9454 19.0001 15.191 19.0001C10.4365 19.0001 6.58228 22.8543 6.58228 27.6088C6.58228 32.3632 10.4365 36.2175 15.191 36.2175Z" fill="#2F4550"/>
<path d="M26.1543 42.9131C24.5356 40.2643 21.666 38.4984 18.3549 38.4984H11.9536C7.31814 38.4984 3.41847 41.9566 2.90342 46.5185L2.02047 54.0235C1.87331 54.98 2.53552 55.863 3.49205 56.0837C7.17098 56.8931 11.0707 57.261 15.1911 57.261C17.2513 57.261 19.2379 57.1874 21.2245 56.9667L22.0339 50.5653C22.4018 47.5486 23.9469 44.8262 26.1543 42.9131Z" fill="#2F4550"/>
<path d="M58.7496 36.2175C63.504 36.2175 67.3583 32.3632 67.3583 27.6088C67.3583 22.8543 63.504 19.0001 58.7496 19.0001C53.9951 19.0001 50.1409 22.8543 50.1409 27.6088C50.1409 32.3632 53.9951 36.2175 58.7496 36.2175Z" fill="#2F4550"/>
<path d="M71.0373 46.5918C70.5222 42.0299 66.6225 38.5717 61.9871 38.5717H55.5857C52.2747 38.5717 49.4051 40.3376 47.7864 42.9864C50.0673 44.8259 51.6125 47.5483 51.9804 50.6386L52.7897 57.04C54.7764 57.2607 56.763 57.3343 58.8232 57.3343C62.87 57.3343 66.8433 56.8928 70.5222 56.157C71.4787 55.9363 72.0674 55.0533 71.9938 54.0968L71.0373 46.5918Z" fill="#2F4550"/>
<path d="M40.1342 42.9131H33.7329C29.0974 42.9131 25.1978 46.3713 24.6827 50.9332L23.7998 58.3647C23.6526 59.3212 24.3148 60.2777 25.2713 60.4249C28.9503 61.2342 32.9235 61.6021 36.9704 61.6021C41.0172 61.6021 44.9904 61.1607 48.6694 60.4249C49.6259 60.2041 50.2145 59.3212 50.1409 58.3647L49.258 50.9332C48.6694 46.3713 44.7697 42.9131 40.1342 42.9131Z" fill="#2F4550"/>
<path d="M36.9703 40.5589C41.7247 40.5589 45.579 36.7047 45.579 31.9502C45.579 27.1957 41.7247 23.3415 36.9703 23.3415C32.2158 23.3415 28.3616 27.1957 28.3616 31.9502C28.3616 36.7047 32.2158 40.5589 36.9703 40.5589Z" fill="#2F4550"/>
<path fill-rule="evenodd" clip-rule="evenodd" d="M53.8582 6.05161C60.4922 9.71488 66.154 15.1653 69.1287 22.1366C72.0386 28.9564 71.1388 36.4986 69.9749 43.8229C68.7729 51.3871 67.9463 59.6845 62.3338 64.8963C56.7312 70.099 48.3926 70.1385 40.7893 70.9252C33.3657 71.6934 25.7313 72.6081 19.0035 69.3798C12.0511 66.0437 6.58871 60.0647 3.46251 53.0141C0.380359 46.0628 0.33046 38.2535 1.90281 30.8122C3.45098 23.4852 6.84864 16.6846 12.2376 11.4847C17.6821 6.23117 24.5895 2.66295 32.0899 1.68386C39.6133 0.701779 47.2173 2.38452 53.8582 6.05161Z" stroke="#2F4550" stroke-width="1.5"/>
</svg>
