<svg width="76" height="76" viewBox="0 0 76 76" fill="none" xmlns="http://www.w3.org/2000/svg">
<path d="M47.7668 34.428C47.7668 42.7776 41.1554 49.5464 33 49.5464C24.8445 49.5464 18.2332 42.7776 18.2332 34.428C18.2332 26.0783 24.8445 19.3096 33 19.3096C41.1554 19.3096 47.7668 26.0783 47.7668 34.428Z" fill="#2F4550"/>
<path fill-rule="evenodd" clip-rule="evenodd" d="M62.2105 64.9566C61.9157 65.1687 61.6217 65.3802 61.3291 65.5913C54.6155 70.4342 47.1673 73.9764 38.7497 74.7525C29.961 75.5628 20.5732 75.0795 12.8685 70.0594C12.2258 69.6407 11.6032 69.1976 11 68.7321C11.7659 59.9616 23.1845 52.9999 37.1581 52.9999C49.0279 52.9999 59.0541 58.0231 62.2735 64.9112C62.2525 64.9264 62.2315 64.9415 62.2105 64.9566Z" fill="#2F4550"/>
<path fill-rule="evenodd" clip-rule="evenodd" d="M59.1468 64.2509C65.5078 59.6623 72.599 54.841 74.3196 46.9936C76.0433 39.1319 71.8921 30.9755 68.079 23.5129C64.5115 16.5309 59.9805 9.89332 53.2973 5.85068C46.7564 1.89416 39.1199 0.930778 31.7976 1.56653C24.7448 2.17889 18.2137 4.85211 12.9479 9.35401C7.71152 13.8308 4.20901 19.8909 2.40513 26.6953C0.527245 33.7789 0.161001 41.3127 2.56282 48.5277C5.12455 56.2231 9.40316 63.7639 16.2244 68.2083C23.0486 72.6547 31.3636 73.0829 39.1479 72.3651C46.6035 71.6777 53.2005 68.5403 59.1468 64.2509Z" stroke="#2F4550" stroke-width="1.5"/>
</svg>