<svg width="78" height="79" viewBox="0 0 78 79" fill="none" xmlns="http://www.w3.org/2000/svg">
<path fill-rule="evenodd" clip-rule="evenodd" d="M38.2894 27.5558C40.0533 27.5558 40.9795 28.8257 41.963 30.0989C42.8568 31.2531 43.8792 32.5371 45.4809 32.5371C47.5981 32.5371 54.6588 31.7697 52.3016 28.1059C49.764 24.5599 45.3825 19.4122 40.8012 18.3531C34.8818 17.6463 28.7473 18.2191 22.7902 18.2191L12.3035 26.621C12.1284 26.7604 11.9144 26.8371 11.6831 26.835L0 26.8436V49.7408H6.56242L26.3826 28.4691C27.19 27.6023 36.7612 27.5558 38.2894 27.5558ZM51.1808 45.0718L51.7969 45.0556L51.7688 44.4396C51.5624 39.775 57.2094 36.4549 60.764 40.0084L67.7447 46.9902C68.5574 47.8029 69.0654 48.8675 69.1843 50.0109L69.2405 50.5535H77.5656V26.9322L63.7037 26.9236C63.4486 26.9236 63.2055 26.8296 63.0217 26.6545L54.301 18.3617H45.5954L46.981 19.4447C49.6526 21.5316 51.9644 24.2433 53.9465 27.0165C58.0081 32.1296 49.0452 34.5214 45.4809 34.5214C43.007 34.5214 41.7911 33.1023 40.3991 31.3018C39.9333 30.7009 39.127 29.538 38.2894 29.538C34.7089 29.538 31.1304 29.8741 27.5596 30.1032L8.05929 51.029C8.72396 53.2781 10.3105 54.7447 12.7736 54.0087C15.9413 53.022 24.6339 44.5023 27.3975 41.862C28.3323 40.9692 29.6941 42.3969 28.7571 43.2918C25.2619 46.6303 17.57 54.4497 13.3248 55.9141C10.9817 61.0024 16.0116 63.9799 20.3433 60.5203C24.5172 57.1862 28.4599 53.5515 32.3225 49.8618C33.2574 48.9691 34.6181 50.3968 33.6811 51.2917C29.9859 54.8225 26.2259 58.2615 22.2671 61.4974C20.2925 64.7418 23.6645 68.7255 27.86 65.3708L30.4388 63.2331C31.4406 62.402 32.7073 63.9031 31.7227 64.7343C30.8819 65.4443 30.0378 66.1468 29.184 66.8418C30.3339 70.2213 34.4646 71.007 35.6751 67.0666C33.5924 63.2666 36.317 59.4579 40.4272 58.9403C39.6177 54.9803 41.9489 52.0752 45.9705 51.8191C45.5619 48.446 47.5884 45.168 51.1808 45.0718ZM61.5973 53.1387C63.6713 55.2116 67.2324 53.263 67.2324 50.5524C67.2324 49.7429 66.9201 48.9615 66.3462 48.3887L59.3655 41.407C56.469 38.5116 51.7288 43.2702 54.6155 46.1569L61.5973 53.1387ZM53.4645 47.9402C50.5691 45.0459 45.8289 49.8034 48.7156 52.6902L55.6974 59.6719C58.5895 62.5641 63.3384 57.8141 60.4473 54.922L53.4645 47.9402ZM47.8121 54.7166C44.9437 51.845 40.1549 56.5712 43.0621 59.4742L48.708 65.1104C51.5721 67.9701 56.3815 63.4384 53.3683 60.2772L47.8121 54.7166ZM42.5606 61.8529C39.6696 58.9608 34.9196 63.7183 37.8128 66.6029L40.5537 69.3362C43.4242 72.1991 48.1925 67.4837 45.2982 64.5894L42.5606 61.8529Z" fill="#2F4550"/>
<path fill-rule="evenodd" clip-rule="evenodd" d="M52.3479 4.57003C59.2048 7.7969 65.2071 12.87 68.626 19.6345C71.9707 26.2519 76.7152 32.7043 76.0271 40.0885C75.3165 47.7146 71.2129 57.2115 65.949 62.7751C60.6943 68.3291 50.2819 76.5603 42.7453 77.8368C38.4984 78.5561 28.5814 72.8052 21.659 70.0184C14.5055 67.1386 8.66811 61.5252 5.09277 54.6913C1.56781 47.9538 1.0133 40.1641 2.10144 32.6367C3.17284 25.225 8.71435 20.3798 13.756 14.8424C18.8495 9.24803 22.9214 3.08007 30.3429 1.61828C37.787 0.152023 45.4839 1.33981 52.3479 4.57003Z" stroke="#2F4550" stroke-width="1.5"/>
</svg>
