<svg width="99" height="99" viewBox="0 0 99 99" fill="none" xmlns="http://www.w3.org/2000/svg">
<path fill-rule="evenodd" clip-rule="evenodd" d="M65.8582 17.0515C72.4922 20.7148 78.154 26.1652 81.1287 33.1366C84.0386 39.9563 83.1388 47.4985 81.9749 54.8229C80.7729 62.3871 79.9463 70.6844 74.3338 75.8962C68.7312 81.099 60.3926 81.1384 52.7893 81.9252C45.3657 82.6933 37.7313 83.6081 31.0035 80.3797C24.0511 77.0436 18.5887 71.0646 15.4625 64.014C12.3804 57.0628 12.3305 49.2535 13.9028 41.8121C15.451 34.4852 18.8486 27.6846 24.2376 22.4846C29.6821 17.2311 36.5895 13.6629 44.0899 12.6838C51.6133 11.7017 59.2173 13.3845 65.8582 17.0515Z" stroke="#2F4550" stroke-width="1.5"/>
<path d="M47.9479 58.5124L38.2842 38.7775C47.3755 34.3257 50.8834 24.0857 53.142 18.0313C54.9488 13.1879 57.5783 15.6757 58.6671 17.525L64.2048 28.8338C72.9253 31.8211 72.4712 39.5394 71.1541 43.0251L73.9772 48.7903C76.8049 54.0035 79.1891 59.4339 73.6776 58.284C62.225 54.5452 52.8971 56.4554 47.9479 58.5124Z" fill="#2F4550"/>
<path d="M47.2174 80.0385L35.7111 69.4533L44.0286 65.1054C44.9171 64.4871 46.9348 63.5174 47.8976 64.5854C49.1011 65.9203 47.8747 67.3457 50.0693 69.0202C52.2638 70.6947 51.0648 68.8076 55.1327 70.9393C58.3869 72.6447 57.2727 74.7481 56.3088 75.5867L47.2174 80.0385Z" fill="#2F4550"/>
<rect x="23.3191" y="45.8317" width="12.8387" height="22.7146" transform="rotate(-26.0901 23.3191 45.8317)" fill="#2F4550"/>
<path d="M21.0743 50.2295C18.8253 52.9128 18.2307 56.7733 19.8697 60.1204C21.5087 63.4676 24.9229 65.3651 28.4217 65.2338L21.0743 50.2295Z" fill="#2F4550"/>
<rect x="73.3499" y="31.229" width="11.8511" height="2.96277" rx="1.48139" transform="rotate(-26.0901 73.3499 31.229)" fill="#2F4550"/>
<rect x="68.0806" y="27.2049" width="11.8511" height="2.96277" rx="1.48139" transform="rotate(-67.859 68.0806 27.2049)" fill="#2F4550"/>
<rect width="11.8511" height="2.96277" rx="1.48139" transform="matrix(-0.962792 -0.270243 -0.270243 0.962792 87.3462 41.9627)" fill="#2F4550"/>
</svg>
