<svg width="76" height="74" viewBox="0 0 76 74" fill="none" xmlns="http://www.w3.org/2000/svg">
<path d="M56.8774 49.8599C52.5309 44.8231 55.599 38.0733 53.56 27.0922C52.1538 19.6074 44.5412 17.0187 39.8304 16.1238V14.6217C39.7903 13.6476 39.3751 12.7267 38.6716 12.0516C37.9682 11.3765 37.031 10.9995 36.056 10.9995C35.081 10.9995 34.1438 11.3765 33.4404 12.0516C32.7369 12.7267 32.3217 13.6476 32.2816 14.6217V16.1174C27.5645 17.0187 19.9518 19.6074 18.5456 27.0922C16.4874 38.0733 19.5747 44.8295 15.2282 49.8599C10.8818 54.8903 12.5948 55.4655 12.5948 55.4655H59.5108C59.5108 55.4655 61.2238 54.8966 56.8774 49.8599Z" fill="#2F4550"/>
<path d="M36.0592 67.9992C38.2738 67.9975 40.397 67.1166 41.9624 65.5501C43.5277 63.9836 44.407 61.8596 44.407 59.6451H27.6987C27.6987 60.7427 27.915 61.8296 28.3353 62.8436C28.7555 63.8575 29.3714 64.7788 30.1479 65.5546C30.9243 66.3304 31.846 66.9457 32.8603 67.3651C33.8746 67.7846 34.9616 68.0001 36.0592 67.9992Z" fill="#2F4550"/>
<path d="M61.0958 33.3946C60.8375 33.3943 60.5823 33.3378 60.3479 33.2292C60.1135 33.1205 59.9056 32.9622 59.7384 32.7653C59.5712 32.5683 59.4489 32.3374 59.3797 32.0885C59.3106 31.8396 59.2964 31.5786 59.3381 31.3236C61.0511 20.8858 51.9363 16.3412 51.8404 16.2964C51.4529 16.069 51.1655 15.7037 51.0357 15.2736C50.906 14.8434 50.9433 14.3801 51.1404 13.9763C51.3374 13.5725 51.6796 13.258 52.0986 13.0956C52.5175 12.9332 52.9823 12.935 53.4 13.1005C53.5151 13.1581 64.9884 18.9043 62.8536 31.9053C62.784 32.3213 62.5693 32.6992 62.2475 32.9719C61.9256 33.2445 61.5176 33.3943 61.0958 33.3946Z" fill="#2F4550"/>
<path d="M11.0225 33.3942C10.5998 33.3937 10.191 33.243 9.86906 32.969C9.54711 32.6951 9.33295 32.3157 9.26477 31.8985C7.1299 18.8975 18.6032 13.1513 18.7183 13.0937C19.137 12.9216 19.6055 12.9152 20.0288 13.0758C20.4521 13.2364 20.7985 13.5519 20.9977 13.9585C21.1969 14.365 21.234 14.8321 21.1015 15.265C20.969 15.6979 20.6769 16.0642 20.2843 16.2897C19.9008 16.4814 11.0864 20.9813 12.7803 31.3232C12.856 31.7893 12.7437 32.2664 12.4681 32.6499C12.1925 33.0333 11.7761 33.2918 11.3102 33.3686C11.2151 33.3848 11.1189 33.3934 11.0225 33.3942Z" fill="#2F4550"/>
<path fill-rule="evenodd" clip-rule="evenodd" d="M59.1468 64.2505C65.5078 59.6619 72.599 54.8406 74.3196 46.9933C76.0433 39.1316 71.8921 30.9751 68.079 23.5125C64.5115 16.5305 59.9805 9.89299 53.2973 5.85035C46.7564 1.89382 39.1199 0.930442 31.7976 1.56619C24.7448 2.17856 18.2137 4.85177 12.9479 9.35367C7.71152 13.8305 4.20901 19.8905 2.40513 26.695C0.527245 33.7786 0.161001 41.3123 2.56282 48.5274C5.12455 56.2228 9.40316 63.7635 16.2244 68.208C23.0486 72.6544 31.3636 73.0825 39.1479 72.3648C46.6035 71.6774 53.2005 68.54 59.1468 64.2505Z" stroke="#2F4550" stroke-width="1.5"/>
</svg>
