<svg width="75" height="76" viewBox="0 0 75 76" fill="none" xmlns="http://www.w3.org/2000/svg">
<path d="M53.2974 11.0235V19.2139H60.9759L53.2974 11.0235Z" fill="#2F4550"/>
<path d="M62 20.9846H52.2848C52.176 20.9861 52.068 20.9657 51.9671 20.9246C51.8663 20.8835 51.7748 20.8225 51.6979 20.7453C51.6211 20.668 51.5605 20.5761 51.5198 20.4749C51.479 20.3738 51.459 20.2655 51.4608 20.1564V9.99951H19V68.8686H62V20.9846ZM36.1823 20.1032C37.5115 20.1032 38.8109 20.4982 39.9161 21.2383C41.0213 21.9784 41.8827 23.0304 42.3914 24.2611C42.9 25.4919 43.0331 26.8462 42.7738 28.1528C42.5145 29.4594 41.8744 30.6595 40.9345 31.6015C39.9946 32.5435 38.7971 33.185 37.4934 33.4449C36.1897 33.7048 34.8385 33.5714 33.6104 33.0616C32.3824 32.5518 31.3328 31.6885 30.5943 30.5808C29.8558 29.4732 29.4616 28.1709 29.4616 26.8387C29.4637 25.053 30.1724 23.3409 31.4323 22.0782C32.6922 20.8155 34.4005 20.1052 36.1823 20.1032ZM25.0425 45.0674C25.0454 43.8043 25.297 42.5541 25.783 41.3886C26.2689 40.2231 26.9796 39.1651 27.8743 38.2755C28.769 37.3858 29.8301 36.6818 30.9968 36.2039C32.1635 35.7261 33.4129 35.4837 34.6732 35.4907H37.6516C38.91 35.4844 40.1572 35.7275 41.3215 36.2061C42.4858 36.6847 43.5442 37.3892 44.4358 38.2793C45.3274 39.1693 46.0346 40.2273 46.5167 41.3922C46.9989 42.5572 47.2464 43.8062 47.2451 45.0674V46.938C47.2428 47.0477 47.2186 47.1558 47.174 47.2559C47.1295 47.3561 47.0654 47.4463 46.9855 47.5214C46.9057 47.5964 46.8117 47.6546 46.7091 47.6928C46.6064 47.7309 46.4972 47.7481 46.3879 47.7433H25.9363C25.4707 47.7433 25.0425 47.4053 25.0425 46.9381V45.0674ZM25.5323 51.8275H42.401C42.6246 51.8275 42.8391 51.9165 42.9972 52.075C43.1553 52.2335 43.2441 52.4484 43.2441 52.6725C43.2441 52.8966 43.1553 53.1116 42.9972 53.27C42.8391 53.4285 42.6246 53.5175 42.401 53.5175H25.5323C25.3087 53.5175 25.0943 53.4285 24.9362 53.27C24.778 53.1116 24.6892 52.8966 24.6892 52.6725C24.6892 52.4484 24.778 52.2335 24.9362 52.075C25.0943 51.9165 25.3087 51.8275 25.5323 51.8275ZM54.6507 60.7001H25.5323C25.3087 60.7001 25.0943 60.6111 24.9362 60.4526C24.778 60.2942 24.6892 60.0792 24.6892 59.8551C24.6892 59.631 24.778 59.4161 24.9362 59.2576C25.0943 59.0991 25.3087 59.0101 25.5323 59.0101H54.6507C54.8743 59.0101 55.0887 59.0991 55.2468 59.2576C55.405 59.4161 55.4938 59.631 55.4938 59.8551C55.4938 60.0792 55.405 60.2942 55.2468 60.4526C55.0887 60.6111 54.8743 60.7001 54.6507 60.7001Z" fill="#2F4550"/>
<path fill-rule="evenodd" clip-rule="evenodd" d="M30.8359 71.5881C38.3559 73.817 46.5063 76.4814 53.7685 73.0458C61.0439 69.604 64.961 61.3325 68.5357 53.7529C71.8803 46.6614 74.3632 39.0179 73.4769 31.2576C72.6094 23.6625 68.7035 17.0302 63.7241 11.6242C58.9279 6.41702 52.8198 2.88259 46.038 1.46747C39.294 0.0602437 32.357 0.993079 25.8693 3.72522C19.1155 6.56945 12.9296 10.8851 8.68797 17.1966C4.164 23.9283 0.811981 31.9241 1.46468 40.0393C2.11766 48.158 6.86195 55.0001 12.1887 60.7217C17.2904 66.2017 23.8062 69.5045 30.8359 71.5881Z" stroke="#2F4550" stroke-width="1.5"/>
</svg>
